<svg xmlns="http://www.w3.org/2000/svg" xmlns:xlink="http://www.w3.org/1999/xlink" viewBox="0 0 680.77 678.62"><defs><style>.cls-1{isolation:isolate;}.cls-2{opacity:0.31;fill:url(#linear-gradient);}.cls-3{fill:#2551cc;}.cls-4{fill:url(#linear-gradient-2);}.cls-5{opacity:0.6;}.cls-10,.cls-42,.cls-6,.cls-67,.cls-9{fill:#fff;}.cls-7{fill:url(#linear-gradient-3);}.cls-8{fill:url(#linear-gradient-4);}.cls-9{opacity:0.7;}.cls-10{opacity:0.78;}.cls-11{fill:url(#linear-gradient-5);}.cls-12{fill:url(#linear-gradient-6);}.cls-13{fill:url(#linear-gradient-7);}.cls-14{fill:url(#linear-gradient-8);}.cls-15{fill:url(#linear-gradient-9);}.cls-16{fill:url(#linear-gradient-10);}.cls-17{fill:url(#linear-gradient-11);}.cls-18{fill:url(#linear-gradient-12);}.cls-19{fill:url(#linear-gradient-13);}.cls-20{fill:url(#linear-gradient-14);}.cls-21{fill:url(#linear-gradient-15);}.cls-22{fill:url(#linear-gradient-16);}.cls-23{fill:url(#linear-gradient-17);}.cls-24{fill:url(#linear-gradient-18);}.cls-25{fill:url(#linear-gradient-19);}.cls-26{fill:url(#linear-gradient-20);}.cls-27{fill:url(#linear-gradient-21);}.cls-28{fill:url(#linear-gradient-22);}.cls-29{fill:url(#linear-gradient-23);}.cls-30{fill:url(#linear-gradient-24);}.cls-31{fill:url(#linear-gradient-25);}.cls-32{fill:url(#linear-gradient-26);}.cls-33{fill:url(#linear-gradient-27);}.cls-34{fill:url(#linear-gradient-28);}.cls-35{fill:url(#linear-gradient-29);}.cls-36{fill:url(#linear-gradient-30);}.cls-37{fill:url(#linear-gradient-31);}.cls-38{fill:url(#linear-gradient-32);}.cls-39{fill:url(#linear-gradient-33);}.cls-40{fill:url(#linear-gradient-34);}.cls-41{fill:#27a9e5;}.cls-42{opacity:0.67;}.cls-43{fill:url(#linear-gradient-35);}.cls-44{fill:url(#linear-gradient-36);}.cls-45{fill:url(#linear-gradient-37);}.cls-46{fill:url(#linear-gradient-38);}.cls-47{fill:url(#linear-gradient-39);}.cls-48{fill:url(#linear-gradient-40);}.cls-49{fill:url(#linear-gradient-41);}.cls-50{fill:url(#linear-gradient-42);}.cls-51{fill:url(#linear-gradient-43);}.cls-52{fill:url(#linear-gradient-44);}.cls-53{fill:url(#linear-gradient-45);}.cls-54{fill:url(#linear-gradient-46);}.cls-55{fill:url(#linear-gradient-47);}.cls-56{fill:url(#linear-gradient-48);}.cls-57{fill:url(#linear-gradient-49);}.cls-58{fill:url(#linear-gradient-50);}.cls-59{fill:url(#linear-gradient-51);}.cls-60{fill:url(#linear-gradient-52);}.cls-61{fill:url(#linear-gradient-53);}.cls-62{fill:url(#linear-gradient-54);}.cls-63{fill:url(#linear-gradient-55);}.cls-64{fill:url(#linear-gradient-56);}.cls-65{fill:url(#linear-gradient-57);}.cls-66{fill:url(#linear-gradient-58);}.cls-67{mix-blend-mode:soft-light;}.cls-68{fill:url(#linear-gradient-59);}.cls-69{fill:url(#linear-gradient-60);}.cls-70{fill:url(#linear-gradient-61);}.cls-71{fill:url(#linear-gradient-62);}.cls-72{fill:url(#linear-gradient-63);}.cls-73{fill:url(#linear-gradient-64);}.cls-74{fill:url(#linear-gradient-65);}.cls-75{fill:url(#linear-gradient-66);}</style><linearGradient id="linear-gradient" x1="742.99" y1="786.74" x2="262.98" y2="275.77" gradientUnits="userSpaceOnUse"><stop offset="0" stop-color="#09a0e5"/><stop offset="1" stop-color="#b7d7e5"/></linearGradient><linearGradient id="linear-gradient-2" x1="5.2" y1="91.31" x2="252.35" y2="91.31" xlink:href="#linear-gradient"/><linearGradient id="linear-gradient-3" x1="401.02" y1="-182.84" x2="369.02" y2="-53.59" gradientTransform="translate(51.25 -124.79) rotate(22.5)" gradientUnits="userSpaceOnUse"><stop offset="0" stop-color="#2858de"/><stop offset="1" stop-color="#1c3d9a"/></linearGradient><linearGradient id="linear-gradient-4" x1="401.02" y1="-182.84" x2="369.02" y2="-53.59" gradientTransform="translate(6.64 -27.76) rotate(4.73)" xlink:href="#linear-gradient-3"/><linearGradient id="linear-gradient-5" x1="402.57" y1="-182.45" x2="370.57" y2="-53.2" gradientTransform="matrix(1, 0, 0, 1, 0, 0)" xlink:href="#linear-gradient-3"/><linearGradient id="linear-gradient-6" x1="297.39" y1="-208.5" x2="265.39" y2="-79.25" gradientTransform="translate(201.25 -199.19) rotate(72.5)" xlink:href="#linear-gradient-3"/><linearGradient id="linear-gradient-7" x1="297.39" y1="-208.5" x2="265.39" y2="-79.25" gradientTransform="translate(203.95 -199.57) rotate(73.15)" xlink:href="#linear-gradient-3"/><linearGradient id="linear-gradient-8" x1="298.73" y1="-208.17" x2="266.73" y2="-78.93" gradientTransform="matrix(1, 0, 0, 1, 0, 0)" xlink:href="#linear-gradient-3"/><linearGradient id="linear-gradient-9" x1="429.12" y1="-175.88" x2="397.11" y2="-46.63" gradientTransform="matrix(1, 0, 0, 1, 0, 0)" xlink:href="#linear-gradient-3"/><linearGradient id="linear-gradient-10" x1="429.12" y1="-175.88" x2="397.11" y2="-46.63" gradientTransform="translate(425.88 -200.07) rotate(75.47)" xlink:href="#linear-gradient-3"/><linearGradient id="linear-gradient-11" x1="430.52" y1="-175.53" x2="398.52" y2="-46.28" gradientTransform="matrix(1, 0, 0, 1, 0, 0)" xlink:href="#linear-gradient-3"/><linearGradient id="linear-gradient-12" x1="336.89" y1="-198.72" x2="304.89" y2="-69.47" gradientTransform="translate(346.34 -140.95) rotate(81.32)" xlink:href="#linear-gradient-3"/><linearGradient id="linear-gradient-13" x1="336.89" y1="-198.72" x2="304.89" y2="-69.47" gradientTransform="translate(333.75 -144.84) rotate(78.69)" xlink:href="#linear-gradient-3"/><linearGradient id="linear-gradient-14" x1="338.66" y1="-198.28" x2="306.65" y2="-69.03" gradientTransform="matrix(1, 0, 0, 1, 0, 0)" xlink:href="#linear-gradient-3"/><linearGradient id="linear-gradient-15" x1="299.01" y1="267.93" x2="283.16" y2="56.04" gradientUnits="userSpaceOnUse"><stop offset="0" stop-color="#152d73"/><stop offset="1" stop-color="#27a9e5"/></linearGradient><linearGradient id="linear-gradient-16" x1="227.35" y1="750.56" x2="377.77" y2="157.13" xlink:href="#linear-gradient-15"/><linearGradient id="linear-gradient-17" x1="449.19" y1="-170.91" x2="417.19" y2="-41.66" gradientTransform="matrix(1, 0, 0, 1, 0, 0)" xlink:href="#linear-gradient-3"/><linearGradient id="linear-gradient-18" x1="3133.4" y1="392.54" x2="3094.51" y2="392.54" gradientTransform="translate(-3088.3)" gradientUnits="userSpaceOnUse"><stop offset="0" stop-color="#febbba"/><stop offset="1" stop-color="#2858de"/></linearGradient><linearGradient id="linear-gradient-19" x1="63.6" y1="737.57" x2="49.06" y2="561.23" gradientTransform="translate(-22.25)" gradientUnits="userSpaceOnUse"><stop offset="0" stop-color="#1f86b5"/><stop offset="1" stop-color="#1a0f91"/></linearGradient><linearGradient id="linear-gradient-20" x1="-8983.5" y1="653.63" x2="-8970.73" y2="653.63" gradientTransform="matrix(-1, 0, 0, 1, -8923.12, 0)" xlink:href="#linear-gradient-18"/><linearGradient id="linear-gradient-21" x1="-8997.93" y1="702.22" x2="-8989.21" y2="468.36" gradientTransform="matrix(-1, 0, 0, 1, -8923.12, 0)" xlink:href="#linear-gradient-19"/><linearGradient id="linear-gradient-22" x1="125.82" y1="732.44" x2="111.28" y2="556.09" xlink:href="#linear-gradient-19"/><linearGradient id="linear-gradient-23" x1="-9029.52" y1="652.97" x2="-9018.5" y2="652.97" gradientTransform="matrix(-1, 0, 0, 1, -8923.12, 0)" xlink:href="#linear-gradient-18"/><linearGradient id="linear-gradient-24" x1="-9019.48" y1="701.41" x2="-9010.77" y2="467.56" gradientTransform="matrix(-1, 0, 0, 1, -8923.12, 0)" xlink:href="#linear-gradient-19"/><linearGradient id="linear-gradient-25" x1="134.24" y1="283.7" x2="81.31" y2="393.25" gradientTransform="matrix(1, 0, 0, 1, 0, 0)" xlink:href="#linear-gradient-3"/><linearGradient id="linear-gradient-26" x1="164.88" y1="298.5" x2="111.95" y2="408.06" gradientTransform="matrix(1, 0, 0, 1, 0, 0)" xlink:href="#linear-gradient-3"/><linearGradient id="linear-gradient-27" x1="-9070.97" y1="412.89" x2="-8988.41" y2="412.89" gradientTransform="matrix(-1, 0, 0, 1, -8923.12, 0)" xlink:href="#linear-gradient-18"/><linearGradient id="linear-gradient-28" x1="3142.03" y1="359.74" x2="3120.3" y2="410.72" gradientTransform="translate(-3088.3)" xlink:href="#linear-gradient-19"/><linearGradient id="linear-gradient-29" x1="-8994.54" y1="404.24" x2="-8968.82" y2="404.24" gradientTransform="matrix(-1, 0, 0, 1, -8923.12, 0)" xlink:href="#linear-gradient-18"/><linearGradient id="linear-gradient-30" x1="1981.18" y1="3554.18" x2="2006.9" y2="3554.18" gradientTransform="translate(-3558.56 -1568.84) rotate(-32.09)" xlink:href="#linear-gradient-18"/><linearGradient id="linear-gradient-31" x1="-9008.82" y1="328.82" x2="-8976.18" y2="328.82" gradientTransform="matrix(-1, 0, 0, 1, -8923.12, 0)" xlink:href="#linear-gradient-18"/><linearGradient id="linear-gradient-32" x1="-13687.95" y1="-2513.65" x2="-13700.15" y2="-2553.88" gradientTransform="matrix(-0.99, -0.1, -0.1, 0.99, -13819.62, 1436.44)" xlink:href="#linear-gradient-18"/><linearGradient id="linear-gradient-33" x1="-13698.96" y1="-2583.75" x2="-13688.75" y2="-2525.55" gradientTransform="matrix(-0.99, -0.1, -0.1, 0.99, -13819.62, 1436.44)" xlink:href="#linear-gradient-19"/><linearGradient id="linear-gradient-34" x1="-13700.42" y1="-2513.84" x2="-13711.4" y2="-2550.04" gradientTransform="matrix(-0.99, -0.1, -0.1, 0.99, -13819.62, 1436.44)" xlink:href="#linear-gradient-18"/><linearGradient id="linear-gradient-35" x1="-9013.68" y1="-588.67" x2="-8980.08" y2="-504.38" gradientTransform="matrix(-0.98, -0.19, -0.19, 0.98, -8370.45, -825.73)" xlink:href="#linear-gradient-18"/><linearGradient id="linear-gradient-36" x1="-11090.88" y1="252.01" x2="-11067.64" y2="310.32" gradientTransform="matrix(-1, 0, 0, 1, -10564.59, 0)" xlink:href="#linear-gradient-19"/><linearGradient id="linear-gradient-37" x1="-11000.82" y1="661.35" x2="-10978.56" y2="661.35" gradientTransform="matrix(-1, 0, 0, 1, -10564.59, 0)" xlink:href="#linear-gradient-19"/><linearGradient id="linear-gradient-38" x1="-11094.85" y1="749.11" x2="-11062.83" y2="374.8" gradientTransform="matrix(-1, 0, 0, 1, -10564.59, 0)" xlink:href="#linear-gradient-18"/><linearGradient id="linear-gradient-39" x1="-11104.21" y1="657.29" x2="-11068.2" y2="657.29" gradientTransform="matrix(-1, 0, 0, 1, -10564.59, 0)" xlink:href="#linear-gradient-19"/><linearGradient id="linear-gradient-40" x1="-11030.43" y1="754.68" x2="-10998.4" y2="380.27" gradientTransform="matrix(-1, 0, 0, 1, -10564.59, 0)" xlink:href="#linear-gradient-18"/><linearGradient id="linear-gradient-41" x1="748.82" y1="261.47" x2="623.26" y2="331.63" gradientTransform="matrix(1, 0, 0, 1, 0, 0)" xlink:href="#linear-gradient-3"/><linearGradient id="linear-gradient-42" x1="-8761.33" y1="253.95" x2="-8812.51" y2="350.57" gradientTransform="matrix(-1, 0, 0, 1, -8273.03, 0)" xlink:href="#linear-gradient-18"/><linearGradient id="linear-gradient-43" x1="-10463.99" y1="1170.82" x2="-10411.38" y2="1077.18" gradientTransform="matrix(-0.97, 0.26, 0.26, 0.97, -9851.17, 1904.09)" xlink:href="#linear-gradient-18"/><linearGradient id="linear-gradient-44" x1="-10449.79" y1="1090.42" x2="-10425.77" y2="1150.67" gradientTransform="matrix(-0.97, 0.26, 0.26, 0.97, -9851.17, 1904.09)" xlink:href="#linear-gradient-19"/><linearGradient id="linear-gradient-45" x1="-10454.6" y1="1177.96" x2="-10402.11" y2="1084.54" gradientTransform="matrix(-0.97, 0.26, 0.26, 0.97, -9851.17, 1904.09)" xlink:href="#linear-gradient-18"/><linearGradient id="linear-gradient-46" x1="-11409.88" y1="109.02" x2="-11455.46" y2="121.51" gradientTransform="matrix(-1, -0.05, -0.05, 1, -10880.34, -259.75)" xlink:href="#linear-gradient-19"/><linearGradient id="linear-gradient-47" x1="-11422.86" y1="383.7" x2="-11455.02" y2="417.68" gradientTransform="matrix(-1, 0, 0, 1, -10850.59, 0)" xlink:href="#linear-gradient-19"/><linearGradient id="linear-gradient-48" x1="596.51" y1="592.86" x2="711.27" y2="544.85" gradientTransform="translate(-185.16 -139.05) rotate(-2.02)" xlink:href="#linear-gradient-18"/><linearGradient id="linear-gradient-49" x1="643.65" y1="464" x2="708.41" y2="412.95" gradientTransform="translate(-47.7 -268.56) rotate(-2.81)" xlink:href="#linear-gradient-15"/><linearGradient id="linear-gradient-50" x1="310.18" y1="-1222.93" x2="292.93" y2="-1127.56" gradientTransform="translate(65.78 1227.59) rotate(11.52)" gradientUnits="userSpaceOnUse"><stop offset="0" stop-color="#1c3d9a"/><stop offset="1" stop-color="#27a9e5"/></linearGradient><linearGradient id="linear-gradient-51" x1="-2598.08" y1="-4740.8" x2="-2652.03" y2="-4662.56" gradientTransform="matrix(0.41, -0.91, -0.91, -0.41, -2762.04, -4260.53)" xlink:href="#linear-gradient-18"/><linearGradient id="linear-gradient-52" x1="485.96" y1="1382.35" x2="400.03" y2="1506.97" gradientTransform="translate(-289.1 -1229.54) rotate(-12.06)" xlink:href="#linear-gradient-18"/><linearGradient id="linear-gradient-53" x1="533.85" y1="-78.85" x2="504.31" y2="6.5" gradientTransform="matrix(1, 0, 0, 1, 0, 0)" xlink:href="#linear-gradient-3"/><linearGradient id="linear-gradient-54" x1="-6009.2" y1="-5600.84" x2="-5972.11" y2="-5600.84" gradientTransform="translate(-4155.95 7245.81) rotate(79.58)" xlink:href="#linear-gradient-19"/><linearGradient id="linear-gradient-55" x1="-10514.8" y1="-4195.2" x2="-10477.72" y2="-4195.2" gradientTransform="matrix(-0.53, 0.85, -0.85, -0.53, -8870.55, 6956.93)" xlink:href="#linear-gradient-19"/><linearGradient id="linear-gradient-56" x1="-3994.06" y1="-5151.57" x2="-3984.47" y2="-5151.57" gradientTransform="matrix(0.48, 0.88, -0.88, 0.48, -2304.67, 6307.08)" xlink:href="#linear-gradient-18"/><linearGradient id="linear-gradient-57" x1="-5994.99" y1="-5635.1" x2="-5985.46" y2="-5635.1" gradientTransform="translate(-3906.44 7354.85) rotate(77.26)" xlink:href="#linear-gradient-18"/><linearGradient id="linear-gradient-58" x1="407.63" y1="78.59" x2="378.16" y2="177.24" gradientTransform="matrix(1, 0, 0, 1, 0, 0)" xlink:href="#linear-gradient-19"/><linearGradient id="linear-gradient-59" x1="655.87" y1="-101.9" x2="588.57" y2="11.35" gradientTransform="matrix(1, 0, 0, 1, 0, 0)" xlink:href="#linear-gradient-3"/><linearGradient id="linear-gradient-60" x1="249.19" y1="-1095.53" x2="331.27" y2="-1163.94" gradientTransform="translate(65.78 1227.59) rotate(11.52)" xlink:href="#linear-gradient-18"/><linearGradient id="linear-gradient-61" x1="230.09" y1="-1217.08" x2="155.96" y2="-1080.86" gradientTransform="translate(65.78 1227.59) rotate(11.52)" xlink:href="#linear-gradient-18"/><linearGradient id="linear-gradient-62" x1="-299.35" y1="4445.4" x2="-332.12" y2="4488.75" gradientTransform="translate(-1600.28 -3828.95) rotate(-32.03)" xlink:href="#linear-gradient-18"/><linearGradient id="linear-gradient-63" x1="-324.38" y1="4455.86" x2="-285.24" y2="4455.86" gradientTransform="translate(-1600.28 -3828.95) rotate(-32.03)" xlink:href="#linear-gradient-19"/><linearGradient id="linear-gradient-64" x1="-347.34" y1="4479.73" x2="-321.06" y2="4452.76" gradientTransform="translate(-1600.28 -3828.95) rotate(-32.03)" xlink:href="#linear-gradient-18"/><linearGradient id="linear-gradient-65" x1="254.6" y1="-1089.03" x2="336.69" y2="-1157.44" gradientTransform="translate(65.78 1227.59) rotate(11.52)" xlink:href="#linear-gradient-18"/><linearGradient id="linear-gradient-66" x1="559.46" y1="158.27" x2="624.6" y2="158.27" xlink:href="#linear-gradient-15"/></defs><title>revenue</title><g class="cls-1"><g id="Layer_2" data-name="Layer 2"><g id="Layer_1-2" data-name="Layer 1"><path class="cls-2" d="M598.86,581.74c-17.72,18.27-33.57,29-45.71,37.11-118.39,79-253.73,56.27-295.57,48.48-67.51-12.57-124.49-21.43-173.45-65.66C-27.12,501.15-21.71,291.48,63.3,161.59c10.08-15.4,95-141.22,230.59-159,3.31-.43,5.79-.68,8-.91,21-2.22,151-13.95,257,74.87a316.35,316.35,0,0,1,62.25,70.63C703.91,275.12,704.18,473.19,598.86,581.74Z"/><path class="cls-3" d="M251.58,36.7,6,35.52c-3,0-5.36,3.25-5.34,7.27l.54,97.15c0,4.05,2.49,7.28,5.47,7.16l244.14-5.23c2.84-.12,5.1-3.26,5.14-7.12L256.85,44C256.88,40,254.52,36.73,251.58,36.7Z"/><path class="cls-4" d="M6.55,140.87a.91.91,0,0,1-.81-1L5.2,42.75a1.15,1.15,0,0,1,.2-.67A.74.74,0,0,1,6,41.75l245.54,1.18a.77.77,0,0,1,.6.33,1.18,1.18,0,0,1,.2.67l-.86,90.74a.9.9,0,0,1-.78,1h0ZM6,42.38s0,0-.1.07a.45.45,0,0,0-.08.29l.54,97.15c0,.21.12.35.18.35L250.69,135c.07,0,.17-.15.17-.35l.86-90.74a.55.55,0,0,0-.08-.29c0-.07-.08-.07-.1-.07Z"/><g class="cls-5"><rect class="cls-6" x="16" y="86.9" width="11.95" height="45.66"/><rect class="cls-6" x="35.96" y="102.59" width="11.95" height="29.97"/><rect class="cls-6" x="55.93" y="63.81" width="11.95" height="68.75"/><rect class="cls-6" x="75.89" y="116.04" width="11.95" height="16.52"/><rect class="cls-6" x="95.86" y="73" width="11.95" height="59.56"/><rect class="cls-6" x="115.83" y="83.31" width="11.95" height="49.25"/><rect class="cls-6" x="135.79" y="94.52" width="11.95" height="38.04"/><rect class="cls-6" x="155.76" y="49.91" width="11.95" height="82.65"/><rect class="cls-6" x="175.72" y="58.65" width="11.95" height="73.91"/><rect class="cls-6" x="195.69" y="71.88" width="11.95" height="60.68"/><rect class="cls-6" x="215.65" y="117.58" width="11.95" height="14.98"/><rect class="cls-6" x="235.62" y="88.47" width="11.95" height="44.09"/></g><circle class="cls-7" cx="339.3" cy="66.43" r="42.03" transform="translate(0.41 134.9) rotate(-22.5)"/><circle class="cls-8" cx="339.3" cy="66.43" r="40.63" transform="translate(-4.32 28.21) rotate(-4.73)"/><path class="cls-9" d="M305.8,51.26a1.77,1.77,0,0,1-.77-.18,1.7,1.7,0,0,1-.75-2.29,39,39,0,0,1,35-21.57,39.64,39.64,0,0,1,7.07.64,1.71,1.71,0,1,1-.61,3.36,35.88,35.88,0,0,0-38.44,19.1A1.7,1.7,0,0,1,305.8,51.26Z"/><circle class="cls-10" cx="340.19" cy="67.32" r="34.39" transform="translate(186.42 378.15) rotate(-74.87)"/><path class="cls-11" d="M336.81,92.88V89.14a30.6,30.6,0,0,1-10.5-2.28,2.16,2.16,0,0,1-1.19-2.55l.95-3.49a2.17,2.17,0,0,1,3-1.42,25.5,25.5,0,0,0,9.69,2c3.76,0,6.56-1.28,6.56-3.89,0-2.35-2.17-3.75-7.39-5.15-7.45-2-12.79-5.29-12.79-11.85,0-5.92,4.33-10.44,11.84-11.65V45.16A2.18,2.18,0,0,1,339.12,43h2.2a2.19,2.19,0,0,1,2.18,2.18v3.36A27.8,27.8,0,0,1,351.82,50a2.18,2.18,0,0,1,1.35,2.62l-.87,3.23a2.17,2.17,0,0,1-2.87,1.46,22.82,22.82,0,0,0-8.16-1.48c-4.46,0-5.73,1.85-5.73,3.5,0,2,2.67,3.44,8.47,5.22,8.27,2.49,11.71,5.93,11.71,12.1,0,5.67-4.2,10.76-12.35,12v4.19a2.18,2.18,0,0,1-2.18,2.18H339A2.18,2.18,0,0,1,336.81,92.88Z"/><circle class="cls-12" cx="236.45" cy="37.63" r="36.4" transform="translate(129.47 251.83) rotate(-72.5)"/><circle class="cls-13" cx="236.45" cy="37.63" r="35.19" transform="translate(131.91 253.03) rotate(-73.15)"/><path class="cls-9" d="M207.43,24.14a1.19,1.19,0,0,1-.51-.12,1.13,1.13,0,0,1-.49-1.51A33.46,33.46,0,0,1,236.45,4a34.15,34.15,0,0,1,6.06.55,1.12,1.12,0,0,1-.4,2.21,32.45,32.45,0,0,0-5.66-.5,31.21,31.21,0,0,0-28,17.24A1.14,1.14,0,0,1,207.43,24.14Z"/><circle class="cls-10" cx="237.21" cy="38.4" r="29.78"/><path class="cls-14" d="M234.29,60.54V57.3a26.47,26.47,0,0,1-9.09-2,1.88,1.88,0,0,1-1-2.22l.83-3a1.89,1.89,0,0,1,2.56-1.24,21.87,21.87,0,0,0,8.4,1.77c3.25,0,5.68-1.11,5.68-3.37,0-2-1.88-3.25-6.4-4.46-6.45-1.77-11.09-4.58-11.09-10.26,0-5.13,3.75-9,10.26-10.09V19.21a1.89,1.89,0,0,1,1.89-1.89h1.9a1.89,1.89,0,0,1,1.89,1.89v2.91a24.12,24.12,0,0,1,7.21,1.29,1.88,1.88,0,0,1,1.17,2.27l-.76,2.79a1.87,1.87,0,0,1-2.48,1.27,19.62,19.62,0,0,0-7.07-1.28c-3.86,0-5,1.6-5,3,0,1.77,2.31,3,7.33,4.52,7.17,2.15,10.15,5.13,10.15,10.48,0,4.91-3.64,9.32-10.7,10.42v3.63a1.89,1.89,0,0,1-1.89,1.89h-1.9A1.89,1.89,0,0,1,234.29,60.54Z"/><circle class="cls-15" cx="342.2" cy="175.12" r="38.11"/><circle class="cls-16" cx="342.2" cy="175.12" r="36.85" transform="translate(86.85 462.45) rotate(-75.47)"/><path class="cls-9" d="M311.82,161.36a1.48,1.48,0,0,1-.7-.17,1.54,1.54,0,0,1-.68-2.08,35.41,35.41,0,0,1,31.76-19.55,36.15,36.15,0,0,1,6.42.57,1.55,1.55,0,0,1-.56,3.05,32.67,32.67,0,0,0-5.86-.53,32.32,32.32,0,0,0-29,17.86A1.55,1.55,0,0,1,311.82,161.36Z"/><circle class="cls-10" cx="343.01" cy="175.92" r="31.19" transform="translate(107.42 481.05) rotate(-79.48)"/><path class="cls-17" d="M340,199.1v-3.39a27.54,27.54,0,0,1-9.52-2.06,2,2,0,0,1-1.09-2.32l.86-3.16a2,2,0,0,1,2.69-1.3,22.84,22.84,0,0,0,8.79,1.85c3.4,0,5.95-1.15,5.95-3.52,0-2.13-2-3.4-6.7-4.67-6.76-1.85-11.61-4.8-11.61-10.74,0-5.38,3.93-9.47,10.74-10.57v-3.4a2,2,0,0,1,2-2h2a2,2,0,0,1,2,2v3.05a25,25,0,0,1,7.54,1.36,2,2,0,0,1,1.23,2.37l-.79,2.92a2,2,0,0,1-2.6,1.34,20.52,20.52,0,0,0-7.4-1.35c-4,0-5.2,1.68-5.2,3.18,0,1.85,2.43,3.12,7.68,4.73,7.51,2.25,10.63,5.37,10.63,11,0,5.14-3.82,9.76-11.21,10.92v3.79a2,2,0,0,1-2,2h-2A2,2,0,0,1,340,199.1Z"/><circle class="cls-18" cx="255.21" cy="131.13" r="47.93" transform="translate(87.08 363.64) rotate(-81.32)"/><circle class="cls-19" cx="255.21" cy="131.13" r="46.34" transform="translate(76.58 355.67) rotate(-78.69)"/><path class="cls-9" d="M217,113a1.11,1.11,0,0,1-1-1.62,43.7,43.7,0,0,1,39.2-24.14,44.44,44.44,0,0,1,7.92.71,1.12,1.12,0,0,1-.4,2.2,41.9,41.9,0,0,0-7.52-.68A41.48,41.48,0,0,0,218,112.39,1.11,1.11,0,0,1,217,113Z"/><circle class="cls-10" cx="256.22" cy="132.14" r="39.22" transform="translate(44.75 328.08) rotate(-70.1)"/><path class="cls-20" d="M252.38,161.3V157a34.85,34.85,0,0,1-12-2.6,2.46,2.46,0,0,1-1.36-2.91l1.08-4a2.49,2.49,0,0,1,3.38-1.62,28.89,28.89,0,0,0,11.05,2.32c4.29,0,7.48-1.45,7.48-4.43,0-2.68-2.47-4.28-8.42-5.88-8.5-2.32-14.6-6-14.6-13.5,0-6.76,4.94-11.91,13.51-13.29v-4.27a2.49,2.49,0,0,1,2.49-2.49h2.5a2.49,2.49,0,0,1,2.49,2.49v3.83a31.72,31.72,0,0,1,9.49,1.71,2.47,2.47,0,0,1,1.55,3l-1,3.68a2.48,2.48,0,0,1-3.27,1.67,25.87,25.87,0,0,0-9.31-1.69c-5.08,0-6.54,2.11-6.54,4,0,2.32,3.05,3.92,9.66,6,9.44,2.83,13.36,6.75,13.36,13.8,0,6.46-4.79,12.27-14.09,13.72v4.78a2.48,2.48,0,0,1-2.48,2.48h-2.51A2.48,2.48,0,0,1,252.38,161.3Z"/><path class="cls-21" d="M230,242.32s-69.78-97.49-33.46-89.85,40.15,27.72,81.25,5.74,50.66-42.06,58.31-12.43,8.2,26.66,39.74,20.93,30,16.35-19.67,66C302.59,232.76,230,242.32,230,242.32Z"/><path class="cls-22" d="M224.85,250.09S-2,409.31,65.16,609.33c0,0,40.41,67.16,220.12,67.16s200.85-53.74,220-88.15c15.29-49.7,32.73-170.79-149.13-338.25Z"/><rect class="cls-3" x="213.74" y="232.03" width="153.9" height="19.54" rx="9.08"/><path class="cls-23" d="M274.05,582.69V565c-18.49-.74-36.77-5.11-49.76-10.79a10.26,10.26,0,0,1-5.67-12.12l4.5-16.52a10.35,10.35,0,0,1,14-6.77,120.08,120.08,0,0,0,46,9.68c17.8,0,31.08-6,31.08-18.42,0-11.16-10.26-17.8-35-24.44-35.31-9.66-60.66-25.05-60.66-56.14,0-28.07,20.52-49.5,56.14-55.23V356.47A10.33,10.33,0,0,1,285,346.13h10.42a10.33,10.33,0,0,1,10.33,10.34v15.92c17.11.69,29.56,3.61,39.45,7.09a10.27,10.27,0,0,1,6.42,12.41l-4.14,15.28a10.31,10.31,0,0,1-13.6,7,107.64,107.64,0,0,0-38.69-7c-21.13,0-27.16,8.75-27.16,16.6,0,9.66,12.67,16.3,40.14,24.75,39.23,11.77,55.53,28.07,55.53,57.35,0,26.86-19.92,51-58.55,57v19.85A10.33,10.33,0,0,1,294.81,593H284.39A10.33,10.33,0,0,1,274.05,582.69Z"/><path class="cls-6" d="M295.77,595.47H285.35a12.79,12.79,0,0,1-12.78-12.78V567.28c-16.92-1-34.81-5-48.3-10.88a12.76,12.76,0,0,1-7.05-15l4.51-16.52a12.73,12.73,0,0,1,6.69-8.09,12.93,12.93,0,0,1,10.65-.28c10.32,4.33,26.51,9.48,45,9.48,6.72,0,28.64-1.15,28.64-16,0-9.48-9.31-15.67-33.2-22.08-56-15.32-62.47-40.72-62.47-58.5,0-29.21,21.45-51,56.13-57.3V356.47A12.8,12.8,0,0,1,286,343.69h10.42a12.79,12.79,0,0,1,12.78,12.78v13.59A134.09,134.09,0,0,1,347,377.17a12.76,12.76,0,0,1,8,15.36l-4.14,15.28a12.76,12.76,0,0,1-16.83,8.6,105.09,105.09,0,0,0-37.82-6.86c-15.71,0-24.72,5.16-24.72,14.15,0,7.63,10.77,13.91,38.42,22.42,40.66,12.2,57.26,29.49,57.26,59.68,0,29.79-22.91,52.82-58.56,59.11v17.78A12.79,12.79,0,0,1,295.77,595.47Zm-61.72-75.09a8,8,0,0,0-3.49.8,7.8,7.8,0,0,0-4.12,5l-4.5,16.52a7.83,7.83,0,0,0,4.29,9.24c13.59,6,31.86,9.9,48.88,10.58l2.35.1v20.08a7.9,7.9,0,0,0,7.89,7.89h10.42a7.9,7.9,0,0,0,7.89-7.89V560.75l2.06-.32c34.85-5.44,56.49-26.38,56.49-54.63,0-28-15.08-43.39-53.79-55-26.54-8.16-41.89-15.21-41.89-27.09,0-17.67,22.67-19,29.61-19a110,110,0,0,1,39.55,7.18,7.87,7.87,0,0,0,10.38-5.31l4.15-15.28a7.86,7.86,0,0,0-4.88-9.47c-11.66-4.1-24.33-6.37-38.73-6.95l-2.35-.09V356.47a7.9,7.9,0,0,0-7.89-7.89H286a7.9,7.9,0,0,0-7.89,7.89v19.82l-2.06.33c-33.86,5.45-54.08,25.19-54.08,52.82,0,26.06,18.16,42.65,58.87,53.78C302.88,489.15,317.6,496,317.6,510c0,13.06-12.54,20.86-33.53,20.86A122.63,122.63,0,0,1,237.18,521,8.14,8.14,0,0,0,234.05,520.38Z"/><path class="cls-24" d="M6.21,386.72s0,45,19.72,41.3c12-2.24,19.17-50.68,19.17-50.68s-12.46-27.77-13.85-18.68C21.13,424.72,13.59,374.16,6.21,386.72Z"/><path class="cls-25" d="M59.16,653.66s1.49,8.43,2.22,16.77a5.75,5.75,0,0,1-5.5,6.23c-11.11.47-34.87,1.37-43.4,1a1.87,1.87,0,0,1-1.65-2.56h0A4.21,4.21,0,0,1,13,672.83l39.26-18.05Z"/><path class="cls-26" d="M60.38,648.71l-1.19,10.08s-6.88,3.2-11.58-.4l2.85-11.24Z"/><path class="cls-27" d="M59.48,459.17c.52,2.64,2.78,131.38-11,189.08a2,2,0,0,0,1.14,2.28,34.24,34.24,0,0,0,11.21,2.28,3.38,3.38,0,0,0,3.35-2.43C68.13,637,87,569.93,89.44,505.86c2.75-71.59,0-2.44,0-2.44l-1.61-44.25Z"/><path class="cls-28" d="M104.32,658.06s2.37,4.25,4.67,15.56a3.51,3.51,0,0,1-3.09,4.2c-3.67.36-9.32.83-13.84.79a3.49,3.49,0,0,1-3.46-3.9c.5-4.12,2.06-10.89,6.88-16.17Z"/><path class="cls-29" d="M106.4,645.09l-2.79,15.25s-2.76,2-8.23.56l1.33-16.4Z"/><path class="cls-30" d="M114,463.12c11.26,67.93-2.44,167.89-7.06,187.46a3,3,0,0,1-2.46,2.32,20.4,20.4,0,0,1-8.8-.36,2.77,2.77,0,0,1-2-2.57c-.62-15.82.49-112.92-10-151.3a8.7,8.7,0,0,0-3.36-4.81L59.91,479.39,58.35,456Z"/><path class="cls-31" d="M41,337c41.1-4.11,72.19,6.29,72.19,6.29,10.06,58.67,1.76,126.34,1.76,126.34-26.11,6.84-55.57-4.19-55.57-4.19C55,440.9,37,384.28,37,384.28c-8.25-1-16,3.14-14.2-8.3S35.82,337.5,41,337Z"/><path class="cls-32" d="M100.25,375.93l12.93-32.66s31.51,21.41,36.69,48.55a74.67,74.67,0,0,0-27.39,7.34C120.15,386.34,100.25,375.93,100.25,375.93Z"/><path class="cls-33" d="M70,406.67s35.38,20,47.31,2.92a13.42,13.42,0,0,0,2.46-10.43,74.72,74.72,0,0,1,27.39-7.34,37.46,37.46,0,0,1-4.07,25.68c-20.91,38.25-77.77-2.11-77.77-2.11Z"/><path class="cls-34" d="M63.48,420.23,51.88,379.7a1.18,1.18,0,0,0-1-.85c-2.1-.25-8.2-.94-15.23-1.53-8.48-.72-18.32-1.3-24.2-.8a1.18,1.18,0,0,0-1,1.7c3.35,6.77,17.1,34.29,24,43.3a1.2,1.2,0,0,0,1,.47l26.92-.25A1.18,1.18,0,0,0,63.48,420.23Z"/><path class="cls-35" d="M69.56,415.67s2.69-11.06,1.6-15-3.18-9-10.19-7.85a102.35,102.35,0,0,0-15.27,4.07s.42,5.11,5.74,3.46l-3.3,2.56s.47,4.09,5,1.9L50,408.22s1.93,3.36,5.24,1.21S60.17,417,69.56,415.67Z"/><path class="cls-36" d="M15.53,398.56s-8.16-7.94-9.32-11.84-2.07-9.29,4.47-12.06A101.93,101.93,0,0,1,25.78,370s2.36,4.56-3,6l4.15.41s1.78,3.71-3.19,4.25l4.4,1.24s.15,3.87-3.8,3.81S24.18,394.7,15.53,398.56Z"/><path class="cls-37" d="M74.91,311.22l10.73,31a1.1,1.1,0,0,1-.51,1.34c-2.93,1.62-13.47,6.3-26.17-1.76a5.24,5.24,0,0,1-2.42-3.76l-3.48-26.86Z"/><path class="cls-38" d="M42.86,303.54s3.47,24.88,10,31.25,17.93-2.72,24-16.09L70,294.07Z"/><path class="cls-39" d="M69.44,309.5a.9.9,0,0,1-1.1-.85,24.25,24.25,0,0,0-1.43-7.56s.92-2.34-6.22.61-17.85,7.26-23.5,3.46-9.83-19.94,5.29-15.46a.92.92,0,0,0,1.18-.84c.07-2.59.93-8.48,7.11-9.76,5.78-1.2,8.59,1.64,9.7,3.29a.91.91,0,0,0,1.42.12c1.9-2,6.93-6.21,13.33-2.57,5.28,3,5.79,6.49,5.48,8.6a.92.92,0,0,0,1.21,1c1.77-.61,4.53-.73,6.8,2.8,3.15,4.88-2.4,8.27-4,9.14a.91.91,0,0,0-.49.71c-.26,2.35-1.67,12.55-7.4,17.81a.92.92,0,0,1-1.49-.42l-3-9.83a.93.93,0,0,0-1.07-.63Z"/><path class="cls-40" d="M69.16,311.4s3.42-9.58,6.76-6-2,10.12-6.33,11Z"/><path class="cls-41" d="M30.94,240.39a6.71,6.71,0,0,1-6.73-6.6V171.36A6.45,6.45,0,0,1,30.94,165l142.88,3.4a6.54,6.54,0,0,1,6.36,6.5v57.72a6.68,6.68,0,0,1-6.62,6.68Z"/><polygon class="cls-42" points="157.12 190.95 84.9 189.04 84.9 181.35 157.12 183.62 157.12 190.95"/><polygon class="cls-42" points="157.12 205.62 84.9 204.44 84.9 196.74 157.12 198.28 157.12 205.62"/><polygon class="cls-42" points="157.12 220.29 84.9 219.83 84.9 212.14 157.12 212.95 157.12 220.29"/><path class="cls-6" d="M54.05,168.93h0A2.15,2.15,0,0,1,56,171v3.65a53.75,53.75,0,0,1,6.31,1.09c1.56.37,3.1.8,4.64,1.31a2.13,2.13,0,0,1,1.45,2.18l-.45,4.57a1.72,1.72,0,0,1-2.45,1.43,24.6,24.6,0,0,0-3.1-1.16,28.37,28.37,0,0,0-5.87-1.1L56,183v10.44q8.22,2.29,12.11,6.19A13.09,13.09,0,0,1,72,209.28a12.71,12.71,0,0,1-4.3,10.05q-4.32,3.81-12.14,4.28v4a1.83,1.83,0,0,1-1.91,1.86h0a2,2,0,0,1-1.91-2v-4l-.85,0a57.3,57.3,0,0,1-7-.76,45.9,45.9,0,0,1-4.87-1.11,2.1,2.1,0,0,1-1.52-2.17l.53-5.88A1.85,1.85,0,0,1,40.52,212a37.41,37.41,0,0,0,11.12,2.55l0-11.61q-7.91-2-11.8-5.79A13.28,13.28,0,0,1,36,187.31q0-6.19,4.24-9.56c2.81-2.23,6.8-3.34,11.94-3.34v-3.73A1.72,1.72,0,0,1,54.05,168.93Zm-1.91,13.93a6.49,6.49,0,0,0-3.8,1.34A3.91,3.91,0,0,0,47,187.33a4.21,4.21,0,0,0,1.27,3.12,8.89,8.89,0,0,0,3.9,2Zm3.38,21v10.65a5.89,5.89,0,0,0,4.07-1.27A4.56,4.56,0,0,0,61,209.68a4.9,4.9,0,0,0-1.32-3.5A9.69,9.69,0,0,0,55.52,203.89Z"/><path class="cls-41" d="M99.92,239.86l6.22,15a1.61,1.61,0,0,0,2.76.38L121,239.7Z"/><path class="cls-41" d="M530.3,300a6.72,6.72,0,0,1-6.72-6.61V231a6.45,6.45,0,0,1,6.72-6.38L673.18,228a6.53,6.53,0,0,1,6.36,6.5v57.72a6.67,6.67,0,0,1-6.62,6.67Z"/><polygon class="cls-42" points="662.23 250.59 540.1 248.68 540.1 240.98 662.23 243.25 662.23 250.59"/><polygon class="cls-42" points="662.23 265.25 540.1 264.07 540.1 256.38 662.23 257.92 662.23 265.25"/><polygon class="cls-42" points="662.23 279.92 540.1 279.47 540.1 271.77 662.23 272.59 662.23 279.92"/><path class="cls-41" d="M599.29,299.49l6.22,15a1.6,1.6,0,0,0,2.75.37l12.12-15.55Z"/><path class="cls-43" d="M547.91,341.83l31.3,64.29L571,427.76l-15.53-2.5,1.63-14.1a11.34,11.34,0,0,0-1.2-6.5l-20.86-40.32,8-22.25A2.63,2.63,0,0,1,547.91,341.83Z"/><path class="cls-44" d="M515.07,284.4s-8.85,3.75-10.48,8.07c-1.3,3.46-11.08,3.91-12,10.72a8.38,8.38,0,0,1-7.49,6.87c-10,1.34-25.39,5.87-27.86,21-1.88,11.57,4.87,15.95,12,17.47,5.2,1.11,8.66,5.53,7.61,10.12-1,4.4.49,9.48,9.22,13.5,19.56,9,39.1-21.35,39.1-21.35l4-53Z"/><path class="cls-45" d="M436.2,656l-1.27,10.41a4.3,4.3,0,0,1-3.77,3.76,66.79,66.79,0,0,1-13.92.22,3.69,3.69,0,0,1-3.1-4.78c1.28-4,3.62-10,7-13.59h11.55A3.55,3.55,0,0,1,436.2,656Z"/><path class="cls-46" d="M526.61,534.11l1.95,11.46s-6.52,66.09-7.68,92.53a20.68,20.68,0,0,0,3.06,11.77l11.35,18.43-28.84-17-.57-3.52,4.72-6.49-6.18-74A22.64,22.64,0,0,1,507,554.67l6-11.21Z"/><path class="cls-47" d="M537.19,671H528a5.54,5.54,0,0,1-4.4-2.15c-2.87-3.73-8.81-11-11.66-11.19-3.82-.26-3.33,13.34-3.33,13.34h-2.15l-2.71-16.9A10,10,0,0,1,509,643.61h0s.87,6.46,5.61,9.32S533.9,666,533.9,666a13.32,13.32,0,0,1,3.74.1A2.43,2.43,0,0,1,537.19,671Z"/><path class="cls-48" d="M487.12,539.55s-38.22,72.51-44.3,89.06a158.82,158.82,0,0,0-8.29,31.68c-.12,2-2.67,4-9.67,4-3.62,0-5.39-1.45-6.26-2.85a4.1,4.1,0,0,1-.15-4c2.21-4.47,9.23-18.77,11.83-25.26,3.1-7.74,9.77-42.84,13.43-55s7.8-25.44,23.74-37.63C467.45,539.55,478.39,528.83,487.12,539.55Z"/><path class="cls-49" d="M511.27,420.74c9.86-41.78-16.64-63.88-16.64-63.88,10.88-10.45,28.67-17.69,38.63-21.18a13.6,13.6,0,0,1,13.48,2.64c7.87,6.94,20.29,19.87,18,30.71-1.91,9.19-19.26,55.05-19.26,55.05S529.47,431.67,511.27,420.74Z"/><path class="cls-3" d="M489.41,441.43c4-12.09,21.86-20.69,21.86-20.69,18.2,10.93,34.25,3.34,34.25,3.34s3.6,13.76,1.11,26.54-18.07,95-18.07,95c-24.55,5-62.32-5-62.32-5C481.88,512.79,485.39,453.52,489.41,441.43Z"/><path class="cls-50" d="M522.71,305.71l-8,36c-.77,3.18,2.12,2.66,5.33,2.05,5.25-1,12-3,14.28-7.11a4,4,0,0,0,.41-1.36l3.44-25a4.47,4.47,0,0,0-2.62-4.71l-6.65-2.95A4.48,4.48,0,0,0,522.71,305.71Z"/><path class="cls-51" d="M527.45,274.92s10.21,1.41,20,13,6.78,18.94,1.16,21.35-14.21,3.2-25.76-2.88S514.3,273.54,527.45,274.92Z"/><path class="cls-52" d="M527,299.08s-12.13-17.53,5-22.38l4.8,1.74s3.42-12.44-8.31-14.79-27.33,10.37-28,25.5.2,13.1,9.32,17.8,11.68,3,11.68,3-1.71-5.51-1-9.29,5.56-.75,5.56-.75Z"/><path class="cls-53" d="M528,301.75s-6.18-9-9.77-3.81,6.27,8.2,10,9Z"/><path class="cls-54" d="M520.06,427.79h.13l56.58-.06a2.51,2.51,0,1,0,0-5l-56.58.06a2.51,2.51,0,0,0-.12,5Z"/><path class="cls-55" d="M627.63,377H580.51a9,9,0,0,0-8.12,5.1l-21.79,45.7h58.56a5.47,5.47,0,0,0,5.08-3.41l16.89-42.29A3.74,3.74,0,0,0,627.63,377Z"/><ellipse class="cls-41" cx="597.97" cy="401.52" rx="5.98" ry="3.71" transform="translate(29.44 843.74) rotate(-71.76)"/><path class="cls-56" d="M495.6,355.68c-8.59,9.31-18.49,49.55-12.65,56,5.21,7.57,22.39,17.52,38.4,17l23.62-.83c-10.29-10.19-17.22-12.63-25.1-5-6.56-2.53-15.31-12.92-21.06-17.5a6,6,0,0,1-1.51-7.51c4.17-7.67,9.47-15.6,11-23.14C508.35,365.92,501.5,356.11,495.6,355.68Z"/><path class="cls-57" d="M624.44,145.43s11.46-.38,11.91,8.74-10.86,12.76-10.86,12.76Z"/><path class="cls-58" d="M594.92,167.53s-11.48,11.85-12.39,14.65c-1.48,4.48,1.78,17.5-3.48,17s-4.82,1.17-7.41,1.26,3.25-20.59,3-25.63a30.7,30.7,0,0,0-1.93-9.25Z"/><path class="cls-41" d="M619.32,132.11c-8.18-2.43-11,9.69-11,9.69l1.37,35.08c10,18.62,19.73,3.48,20.84-11.49S627.49,134.53,619.32,132.11Z"/><path class="cls-41" d="M569.54,172.26c-9.19,9.76-19.43-1.19-17-13.42s13.38-5,13.38-5Z"/><path class="cls-59" d="M455.09,52.89l1.45,1.6a5.13,5.13,0,0,1,1.13,3.82l-1.14,14.5s1.13.82,3.05-1.57a2.69,2.69,0,0,1,4.05-.47s-2.84,3.16-7.16,7.7a10.76,10.76,0,0,1-7.27,3.41L447.29,77A79.1,79.1,0,0,1,455.09,52.89Z"/><path class="cls-60" d="M448,77c-3.14,5.83-18.09,31.62-19.19,38.84s6.6,17.92,6.6,17.92c-3.73,5.81,14.27-38.58,17.28-52.27Z"/><path class="cls-61" d="M457.73,127.21c25.9,11.23,29.56,21.75,29.56,21.75L465,167.38s-22.44-12.82-34.23-41.84c5.2-2.86,7.66-7.32,10.77-10.54C445.06,120,451.68,124.59,457.73,127.21Z"/><path class="cls-62" d="M275.58,325.29a28.67,28.67,0,0,0-14.95-1.16,3.63,3.63,0,0,0-2.83,4.23l5.76,31.38a1.53,1.53,0,0,0,2.9.36c3.07-6.71,8.72-19.81,10.23-28.81Z"/><path class="cls-63" d="M266.49,272.3a28.73,28.73,0,0,0-10.26-10.95,3.62,3.62,0,0,0-4.94,1.22l-16.91,27.05a1.52,1.52,0,0,0,1.89,2.21c6.79-2.87,19.8-8.73,27-14.36Z"/><path class="cls-64" d="M281.39,320.29l-10.67,4.8a2.47,2.47,0,0,0-.3,3.51,9.05,9.05,0,0,0,2.39,1.89,2.86,2.86,0,0,0,3.16-.29l13.53-4.52Z"/><path class="cls-65" d="M271.57,263.31l-9.6,4.4c-1.25.57-1.93,5.58-1.08,6.44a2.84,2.84,0,0,0,3.12.6L277.66,269Z"/><path class="cls-66" d="M410.6,208.15s-12.73,2.72-19.84,8.69c-24.36,20.48-122,46.92-122,46.92s-.75,11.77,4.38,10.95c0,0,72.92-11.11,107.83-23.75,0,0-29.65,33.36-101.68,68.84,0,0,3.89,9.25,7,8.8,0,0,153.8-62.76,156.06-86.68Z"/><path class="cls-67" d="M379.62,252a.61.61,0,0,1-.51-.28.6.6,0,0,1,.19-.82l19.44-12.18-4.19-4.16a.6.6,0,0,1,0-.84.59.59,0,0,1,.84,0l5.26,5.21-20.72,13A.56.56,0,0,1,379.62,252Z"/><path class="cls-68" d="M512.21,165.33c-9.77-16-32.36-27-45.65-32.29a12.92,12.92,0,0,0-15.78,5.14C441.17,153.61,435.2,180,404.09,210c14.48,10,30.22,27.9,38.19,32.09,30.58-25,46.26-51.54,46.26-51.54C504,216.79,533,209.89,538,208.32a103.67,103.67,0,0,1-.17-21.91C518.64,179,512.21,165.33,512.21,165.33Z"/><path class="cls-69" d="M571.41,189.38l-2.61-5.51c-13.23,5.61-23.32,5.52-31,2.54a103.67,103.67,0,0,0,.17,21.91C557,205.54,571.41,189.38,571.41,189.38Z"/><path class="cls-70" d="M490.59,112.15l-16,23.83s10.52,11,20.53,12.18l10.09-22.31Z"/><path class="cls-71" d="M509.12,95.07c.23.36,6.3,28.27,6.3,28.27l-16,3.13-9.69-25.59S505.28,88.94,509.12,95.07Z"/><path class="cls-72" d="M495.46,105l4,13.88a2.27,2.27,0,0,0,.23.5c.6,1,2.91,4.12,6,1.56,2.8-2.32,5.39-4.4,7.69-4.67a2,2,0,0,1,2.22,1.57,88.06,88.06,0,0,1,1.91,13.41,2,2,0,0,1-1.75,2.08,65.27,65.27,0,0,1-15.15.41,2,2,0,0,1-1.63-1.26c-1.33-3.37-5.38-13.6-6.95-16.28-1.47-2.51-5.42-2.66-7.08-2.6a2,2,0,0,1-1.46-.57c-1.38-1.35-3.95-4.74.14-8.4a2,2,0,0,0,.12-2.91c-1.58-1.66-3.21-4.53-.24-7.82s6.7-2.57,8.93-1.61a2,2,0,0,0,2.48-.77,1.57,1.57,0,0,1,1.68-.67,2,2,0,0,0,2.23-1.92,6,6,0,0,1,5-6c7-1.76,11,5.14,11.1,10.13s-7.57,6.47-12,5.89c-3.38-.44-6.1,2.79-7.2,4.36A2,2,0,0,0,495.46,105Z"/><path class="cls-73" d="M493.59,121.24s-.63-8.69-4.19-9.31-7.23,2.13-3.93,7.17C489.57,125.37,493.59,121.24,493.59,121.24Z"/><path class="cls-74" d="M592.31,181.31l-18.22-1.46.57-2.36s-8.11,1.82-8.39,8.12L565,195.49c1.59-1.16,6.46-3.55,8.4-3.19l9.63,1.76a7.73,7.73,0,0,0,8.91-5.81A16.09,16.09,0,0,0,592.31,181.31Z"/><path class="cls-75" d="M565,154.18s22.62.66,49.33-17.57a3,3,0,0,1,4.19.89c8.22,13.67,6.48,28.5,4.17,37.36a7.41,7.41,0,0,1-9.79,5.09c-10-3.79-29.2-9.59-47.24-6.91C558.85,171.92,556.31,157.06,565,154.18Z"/><path class="cls-41" d="M644.76,129.18a1.24,1.24,0,0,1-.73-.25,1.2,1.2,0,0,1-.21-1.68l10.76-13.88a1.19,1.19,0,0,1,1.88,1.46L645.7,128.71A1.17,1.17,0,0,1,644.76,129.18Z"/><path class="cls-41" d="M661.7,107.31a1.19,1.19,0,0,1-.94-1.92L666.47,98a1.19,1.19,0,1,1,1.88,1.45l-5.71,7.38A1.18,1.18,0,0,1,661.7,107.31Z"/><path class="cls-41" d="M669.48,136.25a.4.4,0,0,1-.37-.31.55.55,0,0,1,.22-.65l10.9-5.65a.37.37,0,0,1,.51.27.55.55,0,0,1-.21.65l-10.9,5.66A.4.4,0,0,1,669.48,136.25Z"/><path class="cls-41" d="M648.71,145.32a1.2,1.2,0,0,1-.45-2.3L660.6,138a1.19,1.19,0,1,1,.9,2.2l-12.34,5.07A1.2,1.2,0,0,1,648.71,145.32Z"/><path class="cls-41" d="M661.19,161.93c-.45,0-.83-.51-.84-1.15s.35-1.21.81-1.23l18.75-.77c.51,0,.85.5.86,1.15s-.35,1.21-.81,1.23l-18.75.77Z"/><path class="cls-41" d="M646.56,162.37a1.19,1.19,0,0,1,0-2.38l5.89-.17a1.14,1.14,0,0,1,1.23,1.15,1.2,1.2,0,0,1-1.16,1.23l-5.89.17Z"/></g></g></g></svg>