<svg xmlns="http://www.w3.org/2000/svg" xmlns:xlink="http://www.w3.org/1999/xlink" viewBox="0 0 769.71 703.58"><defs><style>.cls-1{fill:none;}.cls-2{fill:url(#linear-gradient);}.cls-3{fill:url(#linear-gradient-2);}.cls-4{fill:url(#linear-gradient-3);}.cls-5{fill:url(#linear-gradient-4);}.cls-6{opacity:0.12;}.cls-7{fill:url(#linear-gradient-5);}.cls-8{fill:url(#linear-gradient-6);}.cls-9{fill:url(#linear-gradient-7);}.cls-10{fill:url(#linear-gradient-8);}.cls-11{fill:url(#linear-gradient-9);}.cls-12{fill:url(#linear-gradient-10);}.cls-13{fill:url(#linear-gradient-11);}.cls-14{fill:url(#linear-gradient-12);}.cls-15{fill:url(#linear-gradient-13);}.cls-16{fill:url(#linear-gradient-14);}.cls-17{fill:url(#linear-gradient-15);}.cls-18{fill:url(#linear-gradient-16);}.cls-19{fill:url(#linear-gradient-17);}.cls-20{fill:url(#linear-gradient-18);}.cls-21{fill:url(#linear-gradient-19);}.cls-22{fill:url(#linear-gradient-20);}.cls-23{fill:url(#linear-gradient-21);}.cls-24{fill:url(#linear-gradient-22);}.cls-25{fill:#f3edf1;}.cls-26{fill:url(#linear-gradient-23);}.cls-27{fill:#001647;}.cls-28{fill:url(#linear-gradient-24);}.cls-29{fill:#0074ab;}.cls-30{fill:#003ea4;}.cls-31{fill:#fff;}.cls-32{fill:url(#linear-gradient-25);}.cls-33{fill:#003b9d;}.cls-34{fill:url(#linear-gradient-26);}.cls-35{fill:#cc7601;}.cls-36{fill:#fdc336;}.cls-37{fill:#fde002;}.cls-38{fill:#fde02c;}.cls-39{fill:#f6cd70;}.cls-40{clip-path:url(#clip-path);}.cls-41{fill:#ffe49c;}.cls-42{fill:url(#linear-gradient-27);}.cls-43{fill:#07123d;}.cls-44{fill:#77829b;}.cls-45{fill:url(#linear-gradient-28);}.cls-46{fill:#f18914;}.cls-47{fill:url(#linear-gradient-29);}.cls-48{fill:#f09404;}.cls-49{clip-path:url(#clip-path-2);}.cls-50{fill:url(#linear-gradient-31);}.cls-51{fill:#eb7d02;}.cls-52{fill:#2e040b;opacity:0.39;}.cls-53{fill:url(#linear-gradient-32);}.cls-54{fill:url(#linear-gradient-33);}.cls-55{clip-path:url(#clip-path-3);}.cls-56{fill:url(#linear-gradient-34);}.cls-57{fill:url(#linear-gradient-35);}.cls-58{clip-path:url(#clip-path-4);}.cls-59{fill:url(#linear-gradient-36);}.cls-60{fill:url(#linear-gradient-37);}.cls-61{fill:url(#linear-gradient-38);}.cls-62{clip-path:url(#clip-path-5);}.cls-63{fill:url(#linear-gradient-39);}.cls-64{fill:url(#linear-gradient-40);}.cls-65{fill:url(#linear-gradient-41);}.cls-66{clip-path:url(#clip-path-6);}.cls-67{fill:url(#linear-gradient-43);}.cls-68{fill:url(#linear-gradient-44);}.cls-69{fill:url(#linear-gradient-45);}.cls-70{clip-path:url(#clip-path-7);}.cls-71{fill:url(#linear-gradient-47);}.cls-72{fill:url(#linear-gradient-48);}.cls-73{fill:url(#linear-gradient-49);}.cls-74{clip-path:url(#clip-path-8);}.cls-75{fill:url(#linear-gradient-51);}.cls-76{fill:url(#linear-gradient-52);}.cls-77{fill:url(#linear-gradient-53);}.cls-78{fill:url(#linear-gradient-54);}.cls-79{fill:url(#linear-gradient-55);}.cls-80{fill:url(#linear-gradient-56);}.cls-81{fill:url(#linear-gradient-57);}.cls-82{fill:url(#linear-gradient-58);}.cls-83{fill:url(#linear-gradient-59);}.cls-84{fill:url(#linear-gradient-60);}.cls-85{fill:url(#linear-gradient-61);}</style><linearGradient id="linear-gradient" x1="424.85" y1="296.04" x2="383.77" y2="323.35" gradientTransform="translate(134.84 -121.63) rotate(20.57)" gradientUnits="userSpaceOnUse"><stop offset="0" stop-color="#f18914"/><stop offset="1" stop-color="#f9cd4f"/></linearGradient><linearGradient id="linear-gradient-2" x1="121.99" y1="1001.65" x2="85.8" y2="1025.71" gradientTransform="matrix(0.86, -0.52, 0.52, 0.86, -285.4, -458.96)" xlink:href="#linear-gradient"/><linearGradient id="linear-gradient-3" x1="-1240.79" y1="1620.55" x2="-1281.87" y2="1647.86" gradientTransform="translate(-1404.46 -481.66) rotate(-103.03)" xlink:href="#linear-gradient"/><linearGradient id="linear-gradient-4" x1="348.68" y1="-216.05" x2="307.61" y2="-188.75" gradientTransform="translate(13.58 495.1) rotate(26.35)" xlink:href="#linear-gradient"/><linearGradient id="linear-gradient-5" x1="384.85" y1="549.46" x2="384.85" y2="153.38" gradientUnits="userSpaceOnUse"><stop offset="0" stop-color="#003ea4"/><stop offset="1" stop-color="#00a8e5"/></linearGradient><linearGradient id="linear-gradient-6" x1="43.51" y1="312.29" x2="324.75" y2="312.29" gradientTransform="matrix(0, 1, -1, 0, 485.46, 444.46)" xlink:href="#linear-gradient-5"/><linearGradient id="linear-gradient-7" x1="556.92" y1="73.82" x2="692" y2="73.82" xlink:href="#linear-gradient-5"/><linearGradient id="linear-gradient-8" x1="-2205.5" y1="798.94" x2="-2103.09" y2="798.94" gradientTransform="translate(-1660.34 442.66) rotate(-154.92)" xlink:href="#linear-gradient-5"/><linearGradient id="linear-gradient-9" x1="37.48" y1="320.3" x2="723.23" y2="320.3" gradientUnits="userSpaceOnUse"><stop offset="0" stop-color="#00aae7"/><stop offset="1" stop-color="#006596"/></linearGradient><linearGradient id="linear-gradient-10" x1="587.58" y1="426.41" x2="660.27" y2="426.41" gradientUnits="userSpaceOnUse"><stop offset="0" stop-color="#003b9d"/><stop offset="1" stop-color="#005dee"/></linearGradient><linearGradient id="linear-gradient-11" x1="591.72" y1="440.32" x2="641.07" y2="440.32" gradientUnits="userSpaceOnUse"><stop offset="0" stop-color="#00aae7"/><stop offset="1" stop-color="#78a8ff"/></linearGradient><linearGradient id="linear-gradient-12" x1="568.47" y1="447.08" x2="719.51" y2="447.08" xlink:href="#linear-gradient-10"/><linearGradient id="linear-gradient-13" x1="573.69" y1="464.17" x2="688.13" y2="464.17" xlink:href="#linear-gradient-11"/><linearGradient id="linear-gradient-14" x1="467.01" y1="-348.04" x2="532.22" y2="-348.04" gradientTransform="matrix(0.83, 0.56, -0.56, 0.83, 48.85, 490.3)" xlink:href="#linear-gradient-10"/><linearGradient id="linear-gradient-15" x1="470.73" y1="-335.56" x2="515" y2="-335.56" gradientTransform="matrix(0.83, 0.56, -0.56, 0.83, 48.85, 490.3)" xlink:href="#linear-gradient-11"/><linearGradient id="linear-gradient-16" x1="142.93" y1="479.79" x2="140.84" y2="346.42" xlink:href="#linear-gradient-10"/><linearGradient id="linear-gradient-17" x1="159.24" y1="475.14" x2="131.36" y2="382.63" xlink:href="#linear-gradient-11"/><linearGradient id="linear-gradient-18" x1="149.95" y1="466.95" x2="40.19" y2="348.85" xlink:href="#linear-gradient-10"/><linearGradient id="linear-gradient-19" x1="142.88" y1="479.26" x2="83.96" y2="390.87" xlink:href="#linear-gradient-11"/><linearGradient id="linear-gradient-20" x1="-361.56" y1="1353.59" x2="-363.47" y2="1231.23" gradientTransform="matrix(0.68, -0.73, 0.73, 0.68, -589.76, -672.62)" xlink:href="#linear-gradient-10"/><linearGradient id="linear-gradient-21" x1="139.51" y1="497.29" x2="79.94" y2="456.1" xlink:href="#linear-gradient-11"/><linearGradient id="linear-gradient-22" x1="158.33" y1="551.49" x2="700.08" y2="551.49" gradientTransform="matrix(0.99, 0, -0.1, 1.01, 26.37, -2.73)" xlink:href="#linear-gradient-5"/><linearGradient id="linear-gradient-23" x1="697.5" y1="534.15" x2="158.02" y2="534.15" gradientTransform="matrix(0.99, 0, -0.1, 1.01, 26.37, -2.73)" xlink:href="#linear-gradient-5"/><linearGradient id="linear-gradient-24" x1="162.37" y1="534.27" x2="693.58" y2="534.27" gradientTransform="matrix(0.99, 0, -0.1, 1.01, 26.37, -2.73)" xlink:href="#linear-gradient-5"/><linearGradient id="linear-gradient-25" x1="501.53" y1="536.05" x2="563.14" y2="536.05" gradientTransform="matrix(0.99, 0, -0.1, 1.01, 26.37, -2.73)" xlink:href="#linear-gradient"/><linearGradient id="linear-gradient-26" x1="230.14" y1="534.9" x2="413.82" y2="534.9" gradientTransform="matrix(0.99, 0, -0.1, 1.01, 26.37, -2.73)" xlink:href="#linear-gradient-5"/><clipPath id="clip-path" transform="translate(0 0)"><path class="cls-1" d="M289.53,508.82c29.94-.31,53.72,12.8,53.12,29.13-.59,16.16-24.89,29.38-54.28,29.67s-53.15-12.43-53.11-28.57C235.31,522.73,259.6,509.13,289.53,508.82Z"/></clipPath><linearGradient id="linear-gradient-27" x1="237.83" y1="149.49" x2="510.15" y2="149.49" gradientUnits="userSpaceOnUse"><stop offset="0" stop-color="#003b9d"/><stop offset="1" stop-color="#0044b3"/></linearGradient><linearGradient id="linear-gradient-28" x1="401.93" y1="311.48" x2="357.33" y2="326.41" gradientTransform="matrix(1, 0, 0, 1, 0, 0)" xlink:href="#linear-gradient"/><linearGradient id="linear-gradient-29" x1="374.16" y1="310.53" x2="429.86" y2="310.53" gradientTransform="matrix(1, 0, 0, 1, 0, 0)" xlink:href="#linear-gradient"/><clipPath id="clip-path-2" transform="translate(0 0)"><ellipse class="cls-2" cx="402.63" cy="310.81" rx="18.78" ry="43.85" transform="translate(-83.52 161.25) rotate(-20.57)"/></clipPath><linearGradient id="linear-gradient-31" x1="411.4" y1="347.88" x2="386.55" y2="273.34" gradientTransform="matrix(1, 0, 0, 1, 0, 0)" xlink:href="#linear-gradient"/><linearGradient id="linear-gradient-32" x1="231.14" y1="168.26" x2="308.23" y2="168.26" xlink:href="#linear-gradient-27"/><linearGradient id="linear-gradient-33" x1="283.22" y1="165.92" x2="296.5" y2="165.92" gradientTransform="matrix(1, 0, 0, 1, 0, 0)" xlink:href="#linear-gradient"/><clipPath id="clip-path-3" transform="translate(0 0)"><polygon class="cls-1" points="391.05 317.4 434.52 292.27 444.32 252.62 441.15 210.22 431.65 223.07 333.25 240.28 310.96 283.62 337.7 329.59 391.05 317.4"/></clipPath><linearGradient id="linear-gradient-34" x1="354.52" y1="241.28" x2="328.06" y2="234.88" gradientTransform="translate(503.86 -167.44) rotate(75.32)" xlink:href="#linear-gradient"/><linearGradient id="linear-gradient-35" x1="342.52" y1="244.43" x2="391.56" y2="244.43" gradientTransform="matrix(1, 0, 0, 1, 0, 0)" xlink:href="#linear-gradient"/><clipPath id="clip-path-4" transform="translate(0 0)"><ellipse class="cls-1" cx="367.36" cy="245" rx="39.08" ry="18.04" transform="translate(37.29 538.31) rotate(-75.33)"/></clipPath><linearGradient id="linear-gradient-36" x1="366.91" y1="218.29" x2="360.02" y2="281.51" gradientTransform="matrix(1, 0, 0, 1, 0, 0)" xlink:href="#linear-gradient"/><linearGradient id="linear-gradient-37" x1="401.58" y1="247.63" x2="378.74" y2="255.52" gradientTransform="matrix(1, 0, 0, 1, 0, 0)" xlink:href="#linear-gradient"/><linearGradient id="linear-gradient-38" x1="389.74" y1="243.67" x2="439.06" y2="243.67" gradientTransform="matrix(0.96, 0.26, -0.26, 0.96, 78.68, -100.41)" xlink:href="#linear-gradient"/><clipPath id="clip-path-5" transform="translate(0 0)"><path class="cls-1" d="M425.25,281.7c-9.61,2.63-22-12.11-27.69-32.93s-2.5-39.84,7.11-42.47,22,12.11,27.69,32.93S434.86,279.07,425.25,281.7Z"/></clipPath><linearGradient id="linear-gradient-39" x1="402.26" y1="217.1" x2="423.17" y2="278.36" gradientTransform="matrix(1, 0, 0, 1, 0, 0)" xlink:href="#linear-gradient"/><linearGradient id="linear-gradient-40" x1="101.8" y1="1015.25" x2="62.5" y2="1028.41" gradientTransform="matrix(0.86, -0.52, 0.52, 0.86, -285.4, -458.96)" xlink:href="#linear-gradient"/><linearGradient id="linear-gradient-41" x1="77.33" y1="1014.41" x2="126.4" y2="1014.41" gradientTransform="translate(582.21 -630.35) rotate(20.26)" xlink:href="#linear-gradient"/><clipPath id="clip-path-6" transform="translate(0 0)"><path class="cls-3" d="M357.72,380c-5,7.66-22.84,3.37-39.79-9.57s-26.6-29.65-21.57-37.31,22.85-3.37,39.79,9.57S362.76,372.3,357.72,380Z"/></clipPath><linearGradient id="linear-gradient-43" x1="110.14" y1="1047.32" x2="88.25" y2="981.65" gradientTransform="matrix(0.86, -0.52, 0.52, 0.86, -285.4, -458.96)" xlink:href="#linear-gradient"/><linearGradient id="linear-gradient-44" x1="-1263.71" y1="1635.99" x2="-1308.31" y2="1650.92" gradientTransform="translate(-1404.46 -481.66) rotate(-103.03)" xlink:href="#linear-gradient"/><linearGradient id="linear-gradient-45" x1="-1291.48" y1="1635.04" x2="-1235.78" y2="1635.04" gradientTransform="translate(-622.81 -1370.82) rotate(-69.73)" xlink:href="#linear-gradient"/><clipPath id="clip-path-7" transform="translate(0 0)"><path class="cls-4" d="M509.62,355.46c6.49,8.13-4.42,25.84-24.36,39.55s-41.37,18.24-47.86,10.11,4.42-25.84,24.37-39.55S503.14,347.33,509.62,355.46Z"/></clipPath><linearGradient id="linear-gradient-47" x1="-1254.24" y1="1672.38" x2="-1279.09" y2="1597.85" gradientTransform="translate(-1404.46 -481.66) rotate(-103.03)" xlink:href="#linear-gradient"/><linearGradient id="linear-gradient-48" x1="325.77" y1="-200.62" x2="281.17" y2="-185.68" gradientTransform="translate(13.58 495.1) rotate(26.35)" xlink:href="#linear-gradient"/><linearGradient id="linear-gradient-49" x1="298" y1="-201.57" x2="353.7" y2="-201.57" gradientTransform="matrix(-0.35, 0.94, -0.94, -0.35, 318.81, 83.61)" xlink:href="#linear-gradient"/><clipPath id="clip-path-8" transform="translate(0 0)"><path class="cls-5" d="M391.75,503.31c-10.4-.15-17.16-19.82-15.11-43.93s12.15-43.55,22.55-43.4,17.17,19.81,15.12,43.93S402.15,503.45,391.75,503.31Z"/></clipPath><linearGradient id="linear-gradient-51" x1="335.23" y1="-164.22" x2="310.39" y2="-238.76" gradientTransform="translate(13.58 495.1) rotate(26.35)" xlink:href="#linear-gradient"/><linearGradient id="linear-gradient-52" x1="564.01" y1="141.64" x2="564.01" y2="102.95" gradientTransform="matrix(1, 0, 0, 1, 0, 0)" xlink:href="#linear-gradient"/><linearGradient id="linear-gradient-53" x1="749.65" y1="276.84" x2="749.65" y2="238.16" gradientTransform="matrix(1, 0, 0, 1, 0, 0)" xlink:href="#linear-gradient"/><linearGradient id="linear-gradient-54" x1="564.01" y1="437.98" x2="564.01" y2="399.29" gradientTransform="matrix(1, 0, 0, 1, 0, 0)" xlink:href="#linear-gradient"/><linearGradient id="linear-gradient-55" x1="160.86" y1="254" x2="160.86" y2="215.32" gradientTransform="matrix(1, 0, 0, 1, 0, 0)" xlink:href="#linear-gradient"/><linearGradient id="linear-gradient-56" x1="153.94" y1="83.13" x2="153.94" y2="44.44" gradientTransform="matrix(1, 0, 0, 1, 0, 0)" xlink:href="#linear-gradient"/><linearGradient id="linear-gradient-57" x1="257.94" y1="18.9" x2="257.94" y2="4.67" gradientTransform="matrix(1, 0, 0, 1, 0, 0)" xlink:href="#linear-gradient"/><linearGradient id="linear-gradient-58" x1="646.03" y1="83.02" x2="646.03" y2="68.8" gradientTransform="matrix(1, 0, 0, 1, 0, 0)" xlink:href="#linear-gradient"/><linearGradient id="linear-gradient-59" x1="713.11" y1="314.73" x2="713.11" y2="306.18" gradientTransform="matrix(1, 0, 0, 1, 0, 0)" xlink:href="#linear-gradient"/><linearGradient id="linear-gradient-60" x1="71.6" y1="204.04" x2="71.6" y2="195.5" gradientTransform="matrix(1, 0, 0, 1, 0, 0)" xlink:href="#linear-gradient"/><linearGradient id="linear-gradient-61" x1="224.03" y1="423.09" x2="224.03" y2="408.87" gradientTransform="matrix(1, 0, 0, 1, 0, 0)" xlink:href="#linear-gradient"/></defs><title>wallet</title><g id="Layer_2" data-name="Layer 2"><g id="Layer_1-2" data-name="Layer 1"><g class="cls-6"><path class="cls-7" d="M409.85,255a212.35,212.35,0,0,1-94.67-38.53c-41.82-30.3-129.33-81.86-212.81-56.18C-12.77,195.76-13.28,298.25,16.71,353.92s242.67,218.71,518.4,192.77c246.73-23.22,294.81-288.93,163.22-337C584.2,168,545.26,274.23,409.85,255Z" transform="translate(0 0)"/><ellipse class="cls-8" cx="173.16" cy="628.6" rx="68.18" ry="140.63" transform="translate(-478.8 636.82) rotate(-75.32)"/><path class="cls-9" d="M596.83,46C581,59.74,565.45,75.52,559.29,95.69c-2.75,9-3.45,18.94-.24,27.77,6.18,17,26.09,26.07,43.94,23.85s33.5-13.54,45.65-27c16.62-18.37,28-40.94,36.91-64.12,4.82-12.59,9-26.61,4.61-39.34C674.43-29,613.49,31.49,596.83,46Z" transform="translate(0 0)"/><path class="cls-10" d="M639.41,660.06c15.33-4.36,31-10.21,41.75-22.09,4.79-5.3,8.46-11.89,9.1-19,1.22-13.67-9.54-26.29-22.52-30.5s-27.35-1.47-40,3.85c-17.31,7.26-32.4,19.1-46,32.16-7.36,7.1-14.71,15.39-15.8,25.53C562.06,686.57,623.33,664.64,639.41,660.06Z" transform="translate(0 0)"/></g><path class="cls-11" d="M720.2,168.33A15.22,15.22,0,0,0,705,162.51L560.71,192a15.34,15.34,0,0,0-6.49,3l25,24.3,61-12.49L329.62,433.74l14.94-191.09A14.49,14.49,0,0,0,337,228.78a14.32,14.32,0,0,0-15.71,1.32L37.48,451.55l18.24,22.36L313.15,273.09l-14.8,189.72a14.34,14.34,0,0,0,7.35,13.75,14.61,14.61,0,0,0,15.63-.95L665.42,224.15,637.36,276l22.73,22.17L721.38,184.7A15.23,15.23,0,0,0,720.2,168.33Z" transform="translate(0 0)"/><path class="cls-12" d="M587.58,488.24l4.14.9,2.2.48,6.23,1.34s82-82,54.47-122.74c-8.47-12.55-29.76-9.47-37.07,36.25C610.78,446.86,587.58,488.24,587.58,488.24Z" transform="translate(0 0)"/><path class="cls-13" d="M591.72,489.14l2.2.48c16-20.86,27.54-44.74,34.61-61.76A316.35,316.35,0,0,0,641,392.3a1,1,0,0,0-2-.53,313.14,313.14,0,0,1-12.43,35.34C619.53,444.22,607.89,468.28,591.72,489.14Z" transform="translate(0 0)"/><path class="cls-14" d="M568.47,515.36l5.22,3.23,2.77,1.71,7.85,4.86S735.87,453,718.06,384.06c-5.49-21.23-36-27.34-68.13,31.51C620.17,470.13,568.47,515.36,568.47,515.36Z" transform="translate(0 0)"/><path class="cls-15" d="M573.69,518.59l2.77,1.71c31.94-20.7,59.24-47.69,77.12-67.5a457.34,457.34,0,0,0,34.29-42.47,1.47,1.47,0,0,0-2.43-1.66,453.06,453.06,0,0,1-34.08,42.19C633.39,470.77,605.86,498,573.69,518.59Z" transform="translate(0 0)"/><path class="cls-16" d="M599.49,511.84l2.62,2.76,1.39,1.47,3.93,4.15s102.2-19.28,102.41-63.41c.07-13.59-17.26-22.07-45.79,8.12C637.61,492.91,599.49,511.84,599.49,511.84Z" transform="translate(0 0)"/><path class="cls-17" d="M602.11,514.6l1.39,1.47c22.4-7.36,43-19.22,56.86-28.26a284.79,284.79,0,0,0,27.25-20,.91.91,0,0,0-1.19-1.38,282.52,282.52,0,0,1-27.08,19.9C645.43,495.38,624.63,507.33,602.11,514.6Z" transform="translate(0 0)"/><path class="cls-18" d="M167.14,486.69l-4,.05-2.13,0-6,.09s-60.82-91.64-27.56-124.37c10.24-10.08,29.46-3.21,27.65,40.68C153.35,443.85,167.14,486.69,167.14,486.69Z" transform="translate(0 0)"/><path class="cls-19" d="M163.11,486.74l-2.13,0c-11-22.4-17.19-46.77-20.56-63.92a300,300,0,0,1-4.94-35.42,1,1,0,0,1,1.93-.12,297.2,297.2,0,0,0,4.91,35.2C145.7,439.75,152,464.31,163.11,486.74Z" transform="translate(0 0)"/><path class="cls-20" d="M179.79,515.49l-5.46,2-2.89,1.07-8.21,3S35.89,426,65.43,365.28c9.09-18.71,38.63-18.64,57.41,42.12C140.24,463.71,179.79,515.49,179.79,515.49Z" transform="translate(0 0)"/><path class="cls-21" d="M174.33,517.52l-2.89,1.07c-25.81-25.26-46.11-55.49-59-77.27a435.32,435.32,0,0,1-23.88-45.93,1.4,1.4,0,0,1,2.57-1.1,430.07,430.07,0,0,0,23.74,45.65C127.83,461.82,148.31,492.29,174.33,517.52Z" transform="translate(0 0)"/><path class="cls-22" d="M169,505.82l-2.49,2.73L165.18,510l-3.74,4.1S62,497.19,61,454.39c-.3-13.17,16.36-21.7,44.56,7.07C131.69,488.13,169,505.82,169,505.82Z" transform="translate(0 0)"/><path class="cls-23" d="M166.5,508.55,165.18,510c-21.86-6.74-42.07-17.88-55.65-26.4a275.19,275.19,0,0,1-26.79-18.95.89.89,0,0,1,1.14-1.36,270.91,270.91,0,0,0,26.61,18.82C124.14,490.67,144.52,501.89,166.5,508.55Z" transform="translate(0 0)"/><path class="cls-24" d="M167.82,476.17a42.82,42.82,0,0,0-23.62,6.4c-6.51,4.2-9,7.53-9.5,13.53l-9.15,111a25,25,0,0,0,1.85,12.12c3.86,8.78,12.28,14.27,32.12,15.26l466.83,2.66a42.73,42.73,0,0,0,9-.92c10.71-2.26,27-12,23-34.5L629.15,501.37a17.19,17.19,0,0,0-1.16-3.05c-5.25-10.79-22-19.31-39.52-19.5l-223.85-.56a3.26,3.26,0,0,0-2.33-.93l-55.64-.61a2.78,2.78,0,0,0-2.22.9l-11.76-.13a3.06,3.06,0,0,0-2.23-.9L235.35,476a2.92,2.92,0,0,0-2.22.88Z" transform="translate(0 0)"/><path class="cls-25" d="M293.74,460.9l0-.63c0-1-1.22-1.81-2.66-1.82l-54.8-.58c-1.42,0-2.59.78-2.6,1.77v.63c0,1,1.15,1.8,2.57,1.82l55,.57C292.62,462.67,293.77,461.88,293.74,460.9Z" transform="translate(0 0)"/><path class="cls-25" d="M365.36,461.6l-.06-.63c-.07-1-1.32-1.8-2.77-1.81l-55.34-.59c-1.44,0-2.58.78-2.54,1.77l0,.63c0,1,1.25,1.8,2.69,1.81l55.5.57C364.31,463.37,365.44,462.58,365.36,461.6Z" transform="translate(0 0)"/><path class="cls-26" d="M656.77,599.25l-30-116c-3.13-11.88-20.67-21.73-39.12-21.92l-418.57-2.46c-17.43-.17-32.26,9.55-33.16,21.64l-8.44,115.82c-.8,11.14,14.1,20.19,33.32,20.29l464,2.43C645.37,619.11,659.71,610.29,656.77,599.25Z" transform="translate(0 0)"/><path class="cls-27" d="M627.89,483.21,658,599.26c3,11.39-11.81,20.51-33,20.4l-464.21-2.42c-19.84-.1-35.26-9.47-34.43-21l8.52-115.82c.45-6,4.28-11.69,10.76-15.92a42.29,42.29,0,0,1,23.5-6.44l418.36,2.47c17.4.18,34.07,8.73,39.28,19.58A17.33,17.33,0,0,1,627.89,483.21ZM160.82,615.91l463.83,2.43c19.83.1,33.72-8.44,30.89-19.1h0l-29.92-116c-3-11.47-20-21-37.81-21.19L169,459.56a39.71,39.71,0,0,0-22,6c-6.06,4-9.64,9.25-10.05,14.89L128.6,596.29a12.14,12.14,0,0,0,.12,2.7C130.3,608.47,143.85,615.82,160.82,615.91Z" transform="translate(0 0)"/><path class="cls-28" d="M653.07,597.64l-28.9-112.77c-3-11.62-20.21-21.26-38.29-21.44L172.5,461.06c-17.1-.17-31.62,9.35-32.46,21.17l-7.9,112.47c-.76,10.92,13.85,19.8,32.66,19.89l457,2.41C641.9,617.11,655.93,608.47,653.07,597.64Z" transform="translate(0 0)"/><path class="cls-27" d="M645.68,594.33,619,488.3c-2.88-11.16-19.38-20.41-36.82-20.58L175.32,465.5c-16.5-.16-30.49,9-31.26,20.31l-7.13,105.61c-.7,10.53,13.35,19.09,31.41,19.19L615.64,613C634.92,613.1,648.39,604.77,645.68,594.33Z" transform="translate(0 0)"/><path class="cls-29" d="M624.44,574.31l-15-60.8c-.16-.65-1.16-1.18-2.21-1.19h0c-1.06,0-1.8.51-1.64,1.16l14.88,60.8c.15.62,1.18,1.14,2.28,1.15h0C623.82,575.43,624.6,574.93,624.44,574.31Z" transform="translate(0 0)"/><path class="cls-30" d="M156.93,574.24l3.92-70c.19-3.25-2.93-6.12-7.6-7l-12-2.27-6.07,88.22,13.47-2.49C153.43,579.81,156.76,577.21,156.93,574.24Z" transform="translate(0 0)"/><path class="cls-29" d="M147,544.05c3.68,0,6.78-1.88,6.92-4.25s-2.72-4.32-6.37-4.34-6.75,1.88-6.91,4.25S143.35,544,147,544.05Z" transform="translate(0 0)"/><path class="cls-27" d="M146.94,542.81c2.69,0,5-1.38,5.06-3.12s-2-3.16-4.67-3.18-5,1.38-5.06,3.12S144.24,542.79,146.94,542.81Z" transform="translate(0 0)"/><polygon class="cls-31" points="610.86 601.69 583.04 479.61 182.19 477.65 176.92 599.28 610.86 601.69"/><path class="cls-32" d="M512.47,501.44l13.74,80.25c.94,5.48-6.27,9.88-16,9.79l-6.07-.05c-9.71-.08-18.28-4.62-19.07-10.1L473.51,501c-.83-5.77,5.9-10.41,15-10.3l5.66.07C503.23,490.86,511.48,495.68,512.47,501.44Z" transform="translate(0 0)"/><path class="cls-33" d="M497.92,572.32l.49,3.15,16.49.15.37,2.22-16.52-.14.49,3.12-3,0-1.3-8.5Z" transform="translate(0 0)"/><path class="cls-33" d="M506,568.92l7.76.07.37,2.23-19.43-.17-.64-4.21a3,3,0,0,1,1.05-3,6.26,6.26,0,0,1,4-1,7,7,0,0,1,2.64.47,5.26,5.26,0,0,1,1.95,1.35,2.3,2.3,0,0,1,1.46-1.41,8,8,0,0,1,2.85-.41h1.42a10.72,10.72,0,0,0,1.67-.11,2.58,2.58,0,0,0,1.23-.42h.28l.39,2.32a2.57,2.57,0,0,1-1.36.38c-.65.06-1.28.08-1.87.08l-1.37,0a4.23,4.23,0,0,0-2.18.44,1.17,1.17,0,0,0-.6,1.28Zm-3,0-.31-1.93a1.91,1.91,0,0,0-.91-1.41,4.08,4.08,0,0,0-2.12-.49,3.68,3.68,0,0,0-2,.45,1.26,1.26,0,0,0-.57,1.36l.3,2Z" transform="translate(0 0)"/><path class="cls-33" d="M507.27,554.78l.65,3.94,4.28.8.38,2.27-19.87-4-.35-2.31,18.55-3.67.38,2.28Zm-2.47,3.36-.45-2.84L497,556.62v0Z" transform="translate(0 0)"/><path class="cls-33" d="M509.2,541.58l.38,2.27-12.29,4.43,0,.05,13,.13.38,2.26-19.12-.19-.35-2.26,12.29-4.44,0,0-13-.13-.34-2.27Z" transform="translate(0 0)"/><path class="cls-33" d="M502.89,533.27a2.56,2.56,0,0,0-1.67.45,3.46,3.46,0,0,0-1,1.62,6.54,6.54,0,0,1-1.82,3,5.1,5.1,0,0,1-3.5,1,6.8,6.8,0,0,1-4-1.23,4.5,4.5,0,0,1-1.93-3,3.06,3.06,0,0,1,1.18-3.05,5.86,5.86,0,0,1,3.89-1.1l.08,0,.34,2.22a3.34,3.34,0,0,0-2,.5,1.4,1.4,0,0,0-.58,1.47,2,2,0,0,0,.89,1.42,3.22,3.22,0,0,0,1.81.52,2,2,0,0,0,1.49-.52,5.17,5.17,0,0,0,1-1.83,5.35,5.35,0,0,1,1.84-2.83,5.69,5.69,0,0,1,3.58-.93,6.67,6.67,0,0,1,4,1.19,4.63,4.63,0,0,1,1.91,3.06,3.49,3.49,0,0,1-1.05,3.22,5.64,5.64,0,0,1-4.26,1.3l-.08,0-.36-2.21a3.53,3.53,0,0,0,2.38-.6,1.76,1.76,0,0,0,.5-1.72,2.07,2.07,0,0,0-.87-1.43A3.14,3.14,0,0,0,502.89,533.27Z" transform="translate(0 0)"/><path class="cls-33" d="M498.19,522.14l.77,4.79,7.8.09.39,2.29-18.8-.2-1.21-7.89,2.89,0,.86,5.6,5.17,0-.76-4.79Z" transform="translate(0 0)"/><path class="cls-33" d="M496.25,512.86l.76,4.77,5.31,0-.92-5.57,2.87,0,1.32,7.88-18.66-.21-1.2-7.86,2.87,0,.85,5.56,4.68.05-.75-4.76Z" transform="translate(0 0)"/><path class="cls-33" d="M496.25,508.33l7.4.08.39,2.32-18.53-.21-.66-4.36a3.18,3.18,0,0,1,1-3.08,5.56,5.56,0,0,1,3.83-1.08,6.58,6.58,0,0,1,2.52.5,5.18,5.18,0,0,1,1.88,1.4,2.23,2.23,0,0,1,1.37-1.46,7,7,0,0,1,2.7-.42l1.36,0a9.74,9.74,0,0,0,1.59-.11,2.29,2.29,0,0,0,1.17-.44h.26l.4,2.39a2.28,2.28,0,0,1-1.28.4,15.82,15.82,0,0,1-1.79.07h-1.3a3.66,3.66,0,0,0-2.07.45,1.22,1.22,0,0,0-.55,1.32Zm-2.85,0-.32-2a2.05,2.05,0,0,0-.89-1.46,3.69,3.69,0,0,0-2-.51,3.28,3.28,0,0,0-1.93.46,1.33,1.33,0,0,0-.53,1.41l.32,2Z" transform="translate(0 0)"/><path class="cls-34" d="M202.37,573.65l2.52-69.55c.21-6,7.77-10.77,16.8-10.66l135,1.6c9.2.11,17.11,5.07,17.56,11l5.2,69.21c.43,5.67-7.23,10.22-17,10.13l-143-1.25C209.81,584.05,202.17,579.34,202.37,573.65Z" transform="translate(0 0)"/><path class="cls-35" d="M289.3,512.58c29.9-.3,53.66,12.77,53.06,29.06-.59,16.12-24.86,29.31-54.21,29.61s-53.1-12.4-53-28.51C235.14,526.46,259.4,512.89,289.3,512.58Z" transform="translate(0 0)"/><path class="cls-36" d="M289.53,508.82c29.94-.31,53.72,12.8,53.12,29.13-.59,16.16-24.89,29.38-54.28,29.67s-53.15-12.43-53.11-28.57C235.31,522.73,259.6,509.13,289.53,508.82Z" transform="translate(0 0)"/><path class="cls-37" d="M235.67,539c.05-16.27,24.23-29.84,54.07-30.22h-.21c-29.93.31-54.22,13.91-54.27,30.23,0,16.14,23.73,28.87,53.11,28.57h.21C259.29,567.86,235.63,555.15,235.67,539Z" transform="translate(0 0)"/><path class="cls-38" d="M289.71,515.4c23.47-.24,42.16,9.94,41.74,22.66s-19.51,23-42.65,23.2-41.81-9.73-41.73-22.33S266.24,515.64,289.71,515.4Z" transform="translate(0 0)"/><path class="cls-39" d="M289.4,515.4c23.3-.24,41.85,10,41.43,22.67s-19.37,23-42.33,23.19-41.51-9.73-41.43-22.33S266.11,515.64,289.4,515.4Z" transform="translate(0 0)"/><g class="cls-40"><path class="cls-41" d="M289.34,507.68l-.15-.2-.16-.2c-.46.12-2.92,1.43-6,3.17l-7.08-3.87-.57.31,7.08,3.88c-1.37.76-2.85,1.59-4.34,2.44l-10.22-5.58-.28.15,10.22,5.58-3.58,2-12-6.56-.56.32,12,6.55L267.9,519c-8-4.28-15-8.09-15.2-8.44l-.19,0h-.2c0,.31,7.6,4.46,15.31,8.58l-1.34.77-.27.16,7.22,3.92-5.79,3.22-1.76-1-5,2.79-20.34-11-.55.31,20.89,11.32,5-2.78,10.32,5.6.56-.3L268,527.54l5.79-3.22,2.29,1.25,1.76-1,3.88,2,.27-.16-3.87-2,3-1.68,4.91,2.68,5.35-3,4.81,2.63,5.33-3,10.26,5.61a1.2,1.2,0,0,0-.62.9c0,.78,1.11,1.4,2.52,1.38s2.59-.66,2.61-1.43-1.11-1.4-2.53-1.38a4,4,0,0,0-1.39.24l-10.84-5.93-5.33,3-4.81-2.63-5.35,3-4.91-2.68-3.59,2-1.78-.93,6.32-3.51-7.34-4,3.58-2L291.66,521l.14.07,3.71-2.06a3.71,3.71,0,0,0,.48,0c1,0,1.89-.48,1.91-1.06a.56.56,0,0,0-.1-.26l1.5-.83,7.85,4.3.14.08,1.45-.81,28.6,15.68.28-.16L309,520.28l2.14-1.18L329,528.86l.14.07,9.6-5.27-.27-.15-9.32,5.12-17.66-9.69,2.29-1.26,10.54,5.78.14.08,9.85-5.43L334,518l-9.57,5.27L314,517.52l8.65-4.78-.27-.15-8.65,4.78L306,513.13l7.56-4.19-.27-.15L305.75,513l-10.28-5.64-.28.16,10.27,5.64-2.29,1.27-5.38-3-.29.16,5.39,3-5.23,2.9a2.28,2.28,0,0,0-1.62-.53,3,3,0,0,0-.93.16l-11.58-6.34C286.65,509,288.93,507.8,289.34,507.68Zm26.18,20.94c0,.54-.82,1-1.8,1s-1.77-.42-1.76-1,.83-1,1.81-1S315.54,528.08,315.52,528.62Zm-48.41-8.54,1.07-.61,6.76,3.6-1.16.64Zm10.16,4.22-1.19.66-1.74-1,1.16-.65Zm3.72-4.59-5.76,3.2-6.77-3.6,5.75-3.3Zm24.75-6.42,7.71,4.24-2.29,1.26-7.71-4.23Zm5.14,5.66-3.59,2-7.71-4.22,3.59-2Zm-14.62-.4.79-.44A1,1,0,0,1,296.26,518.55Zm.79-.75-1.34.75c-.46-.07-.8-.29-.79-.57s.5-.6,1.11-.61A1.12,1.12,0,0,1,297.05,517.8Zm-2.52-.4a.84.84,0,0,0-.4.59c0,.4.4.72,1,.89l-3.3,1.83-13.19-7.2,4.34-2.44Z" transform="translate(0 0)"/><path class="cls-41" d="M259.83,526.05c2.49,0,4.52-1.16,4.54-2.53s-2-2.46-4.48-2.43-4.53,1.16-4.54,2.53S257.35,526.07,259.83,526.05Zm.05-4.75c2.27,0,4.11,1,4.1,2.23s-1.88,2.28-4.14,2.3-4.11-1-4.1-2.22S257.61,521.33,259.88,521.3Z" transform="translate(0 0)"/><path class="cls-41" d="M283.5,567.88l9-4.92a2.19,2.19,0,0,0,.7.11,1.85,1.85,0,0,0,1.25-.43l3.87,2.1L294.12,567l.21.12,4.18-2.29,1.69.91-8,4.36.21.11,8-4.35,5.57,3,.22-.12-5.57-3,6-3.29,6.37,3.45.21-.12-6.37-3.44L315,557.9l7.05,3.82.21-.12L315,557.67l-.11.06-8.28,4.51-1.69-.91,13.9-7.59,6.87,3.73.21-.12-7.08-3.84-.11.06-14,7.64-1.58-.85L325.74,548l-.2-.11L303,560.25l-1.07-.58-.11.05-6.13,3.35-1.1-.59a.53.53,0,0,0,.07-.2c0-.43-.62-.77-1.41-.76a2.21,2.21,0,0,0-.37,0l-2.76-1.49-.1.06-10.33,5.66L277,564.33l5.68-3.12-4.73-2.54,1.38-.73,2.69,1.45,3.82-2.1,4,2.15,3.75-2.05,4,2.14,8.49-4.65a3,3,0,0,0,1.06.16c1.08,0,2-.5,2-1.09s-.86-1.06-1.94-1.05-2,.5-2,1.09a.87.87,0,0,0,.44.68l-8,4.4-4-2.14L289.82,559l-4-2.15-3.82,2.1-2.27-1.23,3-1.6-.21-.11-3,1.6-1.32-.71-1.78,1-4.35-2.34,6.66-3.67-.42-.22-8,4.41-3.78-2-16.08,8.87.42.22,15.66-8.63,3.77,2,1.37-.76L276,558.1l-5.58,3.06.2.12,1,.55c-5.94,3.21-11.76,6.41-11.77,6.65h.3c.17-.27,5.51-3.21,11.68-6.54l4.3,2.38-9.24,5.07.42.23,9.23-5.07,2.67,1.46-7.86,4.31.21.11,7.86-4.31c1.11.61,2.21,1.21,3.23,1.75l-5.45,3,.41.22,5.46-3a49.54,49.54,0,0,0,4.49,2.26l.12-.15.13-.15C287.51,570,285.81,569.12,283.5,567.88Zm23.59-13.16c-.76,0-1.36-.32-1.35-.73s.63-.75,1.38-.76,1.36.32,1.35.73S307.84,554.71,307.09,554.72Zm-30.67,3.6.87.47c-1.64.87-3.43,1.84-5.23,2.81l-.8-.44Zm1.3.24-.87-.47,1.36-.75.89.48Zm-1.15,5.54-4.3-2.38,5.23-2.82,4.31,2.32Zm22.16.63,6-3.29,1.69.92-6,3.29Zm-.21-.11-2.66-1.43,6-3.29,2.66,1.43ZM294,562.18l-.59-.32A.72.72,0,0,1,294,562.18Zm-.81.56c-.45,0-.82-.19-.82-.44s.27-.38.62-.43l1,.53A.89.89,0,0,1,293.18,562.74Zm-10.1,4.91-3.23-1.75,10.23-5.6,2.46,1.33c-.45.13-.77.38-.78.68a.61.61,0,0,0,.28.44Z" transform="translate(0 0)"/><path class="cls-41" d="M262.36,558.68c0,1,1.52,1.85,3.42,1.83s3.44-.87,3.46-1.9-1.52-1.86-3.42-1.84S262.37,557.65,262.36,558.68Zm.3,0c0-.94,1.43-1.72,3.16-1.74s3.13.74,3.12,1.68-1.43,1.72-3.16,1.74S262.65,559.62,262.66,558.67Z" transform="translate(0 0)"/></g><path class="cls-36" d="M277.43,528.46c-7,.07-13.11,2.46-15.62,6l-3.64,0c-.86,0-1.56.4-1.57.88l0,3c0,.47.69.85,1.56.84l2.51,0,0,1.58-2.51,0c-.86,0-1.56.39-1.57.87l0,3c0,.47.69.85,1.55.84l2.51,0v1c0,.47.69.84,1.55.83l6.76-.06c.86,0,1.57-.4,1.57-.87v-.73l36.72-.37,0,.72c0,.47.68.85,1.54.84l6.76-.07c.87,0,1.57-.4,1.59-.87l0-1,1.4,0c.86,0,1.57-.39,1.59-.87l.08-3c0-.47-.67-.84-1.53-.83h-1.4l0-1.58h1.4c.87,0,1.58-.4,1.59-.87l.09-3c0-.47-.67-.85-1.54-.84l-2.52,0c-2.38-3.5-8.43-5.76-15.4-5.69A25.59,25.59,0,0,0,289.09,531,24.67,24.67,0,0,0,277.43,528.46ZM293.87,540l.05-2.54c.05-2,3.1-3.72,6.81-3.76s6.69,1.59,6.64,3.62l-.06,2.55Zm-9.91.1-13.43.14,0-2.54c0-2,3.07-3.72,6.79-3.76s6.7,1.59,6.66,3.62Z" transform="translate(0 0)"/><path class="cls-35" d="M289.07,532.27c-2.83-1.9-7.12-3-11.65-2.95-6.79.07-12.57,2.6-14.51,6l-4.74.05,0,3,4.07,0,0,3.29-4.07,0,0,3,4.07,0,0,1.81,6.76-.07,0-1.57,39.84-.41,0,1.58,6.77-.07,0-1.82,3,0,.08-3-3,0,.1-3.29,3,0,.09-3-3.64,0c-1.81-3.36-7.49-5.77-14.28-5.7A22.17,22.17,0,0,0,289.07,532.27Zm19.86,5-.08,3.4-16.56.17.07-3.4c.05-2.5,3.82-4.58,8.39-4.63S309,534.77,308.93,537.27Zm-23.36.24-.06,3.4-16.55.17,0-3.4c0-2.5,3.78-4.58,8.36-4.63S285.62,535,285.57,537.51Z" transform="translate(0 0)"/><path class="cls-42" d="M248.16,79.08l220.7-39.32A12.46,12.46,0,0,1,483.26,50L510,205.33a12.64,12.64,0,0,1-10.14,14.57l-220.7,39.32A12.46,12.46,0,0,1,264.72,249L238,93.64A12.64,12.64,0,0,1,248.16,79.08Z" transform="translate(0 0)"/><path class="cls-27" d="M276.35,250.53l221.21-39.41a2.75,2.75,0,0,1,3.17,2.24h0a2.78,2.78,0,0,1-2.23,3.2L277.29,256a2.73,2.73,0,0,1-3.17-2.24h0A2.79,2.79,0,0,1,276.35,250.53Z" transform="translate(0 0)"/><polygon class="cls-43" points="278.93 250.84 276.35 250.53 272.7 248.38 270.45 242.66 243.4 91.15 246.02 84.31 253.27 79.44 245.02 81.42 238.72 88.92 266.93 248.64 270.04 254.97 277.29 255.97 278.93 250.84"/><polygon class="cls-44" points="501.17 203.46 501.3 204.21 499.83 204.47 499.7 203.72 501.17 203.46"/><path class="cls-44" d="M496.73,204.25l.13.74-3,.53a.37.37,0,0,1-.43-.31.38.38,0,0,1,.31-.44l.79-.14.14,0Zm-4.9.81a.38.38,0,0,1,.31.31.38.38,0,0,1-.31.43l-.7.12a.37.37,0,0,1-.22.12l-3,.52a.38.38,0,0,1-.44-.3.39.39,0,0,1,.31-.44l.67-.12a.39.39,0,0,1,.25-.16l3-.48Zm-6,1a.4.4,0,0,1,.31.31.39.39,0,0,1-.31.44l-.63.1a.37.37,0,0,1-.28.22l-3,.52a.37.37,0,0,1-.43-.3.38.38,0,0,1,.3-.44l.61-.11a.4.4,0,0,1,.3-.26l3-.48Zm-6,1a.37.37,0,0,1,.31.31.38.38,0,0,1-.31.43l-.59.09a.37.37,0,0,1-.3.32l-3,.52a.37.37,0,0,1-.43-.3.38.38,0,0,1,.31-.44l.58-.1a.36.36,0,0,1,.31-.35l3-.48A.24.24,0,0,1,479.91,207Zm-6,1a.38.38,0,0,1,.31.31.38.38,0,0,1-.31.43l-.57.1a.39.39,0,0,1-.31.4l-3,.52a.38.38,0,0,1-.44-.3A.39.39,0,0,1,470,209l.57-.1h0a.38.38,0,0,1,.31-.43l3-.48Zm-6,1a.4.4,0,0,1,.31.31.39.39,0,0,1-.31.44l-.58.09s0,0,0,.05a.39.39,0,0,1-.31.44l-3,.52a.36.36,0,0,1-.43-.31.37.37,0,0,1,.3-.43l.58-.11a.19.19,0,0,1,0-.08.39.39,0,0,1,.31-.44l3-.48Zm-6,1a.37.37,0,0,1,.31.31.38.38,0,0,1-.32.43l-.59.1a.25.25,0,0,1,.05.13.37.37,0,0,1-.3.43l-3,.53a.37.37,0,0,1-.12-.74l.61-.11a.36.36,0,0,1-.07-.17.38.38,0,0,1,.31-.43l3-.48Zm-6,1a.38.38,0,0,1,.31.31.38.38,0,0,1-.32.43l-.64.11a.31.31,0,0,1,.11.21.37.37,0,0,1-.3.43l-3,.53a.38.38,0,0,1-.44-.31.38.38,0,0,1,.31-.43l.68-.12a.37.37,0,0,1-.15-.25.37.37,0,0,1,.31-.43l3-.48Zm-6,1a.37.37,0,0,1,.3.31.38.38,0,0,1-.31.44l-.73.11a.39.39,0,0,1,.22.29.37.37,0,0,1-.31.43l-3,.53a.37.37,0,0,1-.43-.31.38.38,0,0,1,.3-.44l.8-.14a.36.36,0,0,1-.28-.3.38.38,0,0,1,.31-.44l3-.48A.24.24,0,0,1,450.11,211.8Zm-6,1a.37.37,0,0,1,.31.32.37.37,0,0,1-.31.43l-3,.48a.37.37,0,0,1-.11-.74l3-.48Zm-.81.93a.36.36,0,0,1,.31.31.37.37,0,0,1-.3.43l-3,.53a.38.38,0,0,1-.12-.75l3-.52Zm-5.15,0a.36.36,0,0,1,.31.31.37.37,0,0,1-.31.43l-3,.48a.37.37,0,0,1-.43-.31.38.38,0,0,1,.32-.43l3-.48Zm-.79,1a.35.35,0,0,1,.3.3.38.38,0,0,1-.3.44l-3,.52a.38.38,0,0,1-.44-.3.39.39,0,0,1,.31-.44l3-.52A.29.29,0,0,1,437.39,214.74Zm-5.17-.05a.37.37,0,0,1,.31.31.38.38,0,0,1-.31.44l-3,.48a.38.38,0,0,1-.11-.75l3-.48Zm-.78,1.1a.37.37,0,0,1,.31.3.38.38,0,0,1-.31.44l-3,.52a.37.37,0,0,1-.43-.3.38.38,0,0,1,.3-.44l3-.52Zm-5.18-.14a.37.37,0,0,1,.31.32.38.38,0,0,1-.31.43l-3,.48a.39.39,0,0,1-.43-.31.38.38,0,0,1,.31-.43l3-.49Zm-.77,1.18a.38.38,0,0,1,.31.31.38.38,0,0,1-.3.44l-3,.52a.37.37,0,0,1-.43-.3.38.38,0,0,1,.31-.44l3-.52Zm-5.19-.21a.35.35,0,0,1,.31.31.38.38,0,0,1-.31.43l-3,.48a.37.37,0,0,1-.43-.31.38.38,0,0,1,.31-.43l3-.48Zm-.75,1.26a.37.37,0,0,1,.3.31.38.38,0,0,1-.3.44l-3,.52a.38.38,0,0,1-.13-.74l3-.53Zm-5.21-.3a.38.38,0,0,1,.31.31.39.39,0,0,1-.31.44l-3,.48a.39.39,0,0,1-.43-.31.39.39,0,0,1,.31-.44l3-.48Zm-.74,1.35a.4.4,0,0,1,.31.31.39.39,0,0,1-.31.44l-3,.52a.37.37,0,0,1-.43-.3.37.37,0,0,1,.3-.44l3-.53Zm-5.22-.39a.38.38,0,0,1,0,.75l-3,.48a.38.38,0,0,1-.43-.31.38.38,0,0,1,.31-.43l3-.49Zm-.73,1.44a.38.38,0,0,1,0,.75l-3,.52a.37.37,0,0,1-.12-.74l3-.53Zm-5.23-.47a.36.36,0,0,1,.31.31.38.38,0,0,1-.31.43l-3,.48a.37.37,0,0,1-.43-.31.38.38,0,0,1,.31-.43l3-.48Zm-.71,1.52a.35.35,0,0,1,.3.31.37.37,0,0,1-.3.43l-3,.53a.38.38,0,0,1-.13-.74l3-.53Zm-5.25-.56a.4.4,0,0,1,.31.31.39.39,0,0,1-.31.44l-3,.48a.38.38,0,0,1-.43-.32.39.39,0,0,1,.31-.43l3-.48Zm-.7,1.61a.37.37,0,0,1,0,.74l-3,.53a.38.38,0,0,1-.13-.74l3-.53A.24.24,0,0,1,395.76,222.08Zm-5.26-.65a.39.39,0,0,1,.31.32.38.38,0,0,1-.31.43l-3,.48a.38.38,0,0,1-.43-.31.38.38,0,0,1,.31-.43l3-.49Zm-.69,1.7a.36.36,0,0,1,.31.3.37.37,0,0,1-.3.44l-3,.53a.37.37,0,0,1-.43-.31.39.39,0,0,1,.31-.44l3-.52Zm-5.27-.73a.37.37,0,0,1,.31.31.38.38,0,0,1-.31.43l-3,.48a.36.36,0,0,1-.43-.31.38.38,0,0,1,.31-.43l3-.48A.24.24,0,0,1,384.54,222.4Zm-.67,1.78a.35.35,0,0,1,.3.3.38.38,0,0,1-.3.44l-3,.53a.38.38,0,0,1-.13-.75l3-.52A.29.29,0,0,1,383.87,224.18Zm-5.29-.82a.38.38,0,0,1,.31.31.38.38,0,0,1-.31.43l-3,.49a.38.38,0,0,1-.12-.75l3-.48A.24.24,0,0,1,378.58,223.36Zm-6,1a.39.39,0,0,1,.31.32.39.39,0,0,1-.31.43l-3,.48a.38.38,0,0,1-.43-.31.39.39,0,0,1,.31-.44l3-.48Zm5.3.91a.37.37,0,0,1,.31.3.38.38,0,0,1-.31.44l-3,.52a.37.37,0,0,1-.43-.3.38.38,0,0,1,.3-.44l3-.52Zm-11.26.06a.37.37,0,0,1,.31.31.38.38,0,0,1-.31.43l-3,.48a.36.36,0,0,1-.43-.31.38.38,0,0,1,.31-.43l3-.48Zm5.31,1a.36.36,0,0,1,.31.3.38.38,0,0,1-.3.44l-3,.52a.37.37,0,0,1-.43-.3.38.38,0,0,1,.31-.44l3-.52Zm-11.27,0a.38.38,0,0,1,.31.31.38.38,0,0,1-.32.43l-3,.49a.37.37,0,0,1-.42-.32.38.38,0,0,1,.31-.43l3-.48Zm5.33,1.07a.37.37,0,0,1,.3.31.38.38,0,0,1-.3.44l-3,.52a.36.36,0,0,1-.43-.3.38.38,0,0,1,.3-.44l3-.52Zm-11.29-.11a.4.4,0,0,1,.31.31.39.39,0,0,1-.32.44l-3,.48a.37.37,0,0,1-.42-.31.38.38,0,0,1,.31-.44l3-.48Zm5.34,1.16a.4.4,0,0,1,.31.31.38.38,0,0,1-.31.44l-3,.52a.38.38,0,0,1-.13-.74l3-.53Zm-11.31-.19a.35.35,0,0,1,.31.31.37.37,0,0,1-.31.43l-3,.48a.36.36,0,0,1-.42-.31.37.37,0,0,1,.31-.43l3-.48A.2.2,0,0,1,348.77,228.18Zm5.36,1.24a.38.38,0,0,1,0,.75l-3,.52A.37.37,0,0,1,351,230l3-.53Zm-11.32-.28a.37.37,0,0,1,0,.74l-3,.49a.37.37,0,0,1-.42-.32.37.37,0,0,1,.31-.43l3-.48Zm5.38,1.33a.37.37,0,0,1,.3.31.37.37,0,0,1-.3.43l-3,.53a.36.36,0,0,1-.43-.31.37.37,0,0,1,.3-.43l3-.53Zm-11.34-.37a.37.37,0,0,1,.31.31.38.38,0,0,1-.31.44l-3,.48a.37.37,0,0,1-.42-.31.38.38,0,0,1,.31-.44l3-.48Zm5.39,1.42a.37.37,0,0,1,0,.74l-3,.53a.38.38,0,0,1-.13-.74l3-.53A.24.24,0,0,1,342.24,231.52Zm-11.35-.45a.35.35,0,0,1,.31.31.37.37,0,0,1-.31.43l-3,.48a.37.37,0,0,1-.11-.74l3-.48Zm5.4,1.5a.36.36,0,0,1,.31.31.37.37,0,0,1-.3.43l-3,.53a.37.37,0,0,1-.43-.31.39.39,0,0,1,.31-.44l3-.52ZM324.93,232a.36.36,0,0,1,.31.31.37.37,0,0,1-.31.43l-3,.48a.37.37,0,0,1-.12-.74l3-.48Zm5.42,1.59a.35.35,0,0,1,.3.3.37.37,0,0,1-.3.44l-3,.53a.37.37,0,0,1-.43-.31.38.38,0,0,1,.3-.44l3-.52ZM319,233a.37.37,0,0,1,.31.31.39.39,0,0,1-.31.44l-3,.48a.39.39,0,0,1-.43-.31.39.39,0,0,1,.31-.44l3-.48Zm5.43,1.68a.37.37,0,0,1,.31.3.38.38,0,0,1-.31.44l-3,.53a.38.38,0,0,1-.43-.31.38.38,0,0,1,.3-.44l3-.52ZM313,234a.35.35,0,0,1,.31.31.38.38,0,0,1-.31.43l-3,.48a.39.39,0,0,1-.43-.31.38.38,0,0,1,.31-.43l3-.48A.24.24,0,0,1,313,234Zm5.44,1.76a.36.36,0,0,1,.31.3.38.38,0,0,1-.3.44l-3,.52a.37.37,0,0,1-.43-.3.38.38,0,0,1,.31-.44l3-.52Zm-11.4-.8a.36.36,0,0,1,.31.31.38.38,0,0,1-.31.43l-3,.48a.37.37,0,0,1-.43-.31.38.38,0,0,1,.31-.43l3-.48Zm5.46,1.84a.4.4,0,0,1,.31.31.39.39,0,0,1-.31.44l-3,.52a.36.36,0,0,1-.43-.3.38.38,0,0,1,.3-.44l3-.52Zm-11.42-.88a.38.38,0,0,1,.31.31.39.39,0,0,1-.31.44l-3,.48a.38.38,0,0,1-.43-.32.39.39,0,0,1,.31-.43l3-.48Zm5.47,1.93a.4.4,0,0,1,.31.31.38.38,0,0,1-.31.44l-3,.52a.37.37,0,0,1-.43-.3.38.38,0,0,1,.3-.44l3-.53Zm-11.43-1a.38.38,0,0,1,0,.75l-3,.48a.37.37,0,1,1-.12-.74l3-.48Zm5.48,2a.38.38,0,0,1,0,.75l-3,.52a.37.37,0,0,1-.12-.74l3-.53Zm-11.44-1.05a.37.37,0,0,1,.31.31.38.38,0,0,1-.31.43l-3,.49a.38.38,0,0,1-.43-.32.38.38,0,0,1,.31-.43l3-.48Zm5.5,2.1a.37.37,0,0,1,.3.31.38.38,0,0,1-.3.44l-3,.52a.38.38,0,0,1-.13-.74l3-.53Zm-11.46-1.14a.4.4,0,0,1,.31.31.39.39,0,0,1-.31.44l-3,.48a.38.38,0,0,1-.43-.31.39.39,0,0,1,.31-.44l3-.48Zm5.51,2.19a.4.4,0,0,1,.31.31.37.37,0,0,1-.31.43l-3,.53a.38.38,0,0,1-.13-.74l3-.53A.24.24,0,0,1,288.72,241Zm-8.61-.84.1,0,2.74,1.26a.37.37,0,0,1-.31.68l-2.74-1.25a.38.38,0,0,1-.19-.5A.38.38,0,0,1,280.11,240.12Z" transform="translate(0 0)"/><polygon class="cls-44" points="275.02 235.69 278.54 240.22 275.62 238.88 275.02 235.69"/><path class="cls-44" d="M251.11,89.23a.35.35,0,0,1,.3.31l.5,3a.38.38,0,1,1-.74.13l-.49-3a.37.37,0,0,1,.3-.43A.28.28,0,0,1,251.11,89.23Zm-.79-.08.08,0a.38.38,0,0,1,.21.49l-1.07,2.81a.39.39,0,0,1-.49.22.38.38,0,0,1-.21-.49l1.07-2.81A.38.38,0,0,1,250.32,89.15Zm1.77,6a.36.36,0,0,1,.31.31l.5,3a.38.38,0,0,1-.31.43.37.37,0,0,1-.43-.3l-.49-3a.38.38,0,0,1,.3-.44Zm-3-.3a.37.37,0,0,1,.31.3l.55,3a.37.37,0,1,1-.73.15l-.56-3a.38.38,0,0,1,.3-.44A.29.29,0,0,1,249.12,94.86Zm4,6.24a.36.36,0,0,1,.31.3l.49,3a.38.38,0,0,1-.3.44.37.37,0,0,1-.43-.31l-.5-3a.38.38,0,0,1,.31-.43Zm-2.85-.33a.37.37,0,0,1,.3.3l.56,3a.37.37,0,0,1-.3.44.37.37,0,0,1-.43-.3l-.56-3a.38.38,0,0,1,.3-.45Zm3.84,6.26a.4.4,0,0,1,.31.31l.49,3a.37.37,0,0,1-.3.43.36.36,0,0,1-.43-.31l-.5-3A.39.39,0,0,1,254,107Zm-2.73-.35a.37.37,0,0,1,.3.3l.56,3a.38.38,0,0,1-.3.44.38.38,0,0,1-.44-.3l-.55-3a.36.36,0,0,1,.3-.44Zm3.72,6.29a.37.37,0,0,1,.31.3l.49,3a.38.38,0,0,1-.3.44.36.36,0,0,1-.43-.31l-.5-3a.37.37,0,0,1,.31-.43A.24.24,0,0,1,255.06,113Zm-2.62-.37a.36.36,0,0,1,.31.3l.56,2.95a.38.38,0,1,1-.74.15l-.55-3a.38.38,0,0,1,.29-.44Zm3.61,6.3a.37.37,0,0,1,.3.31l.5,3a.37.37,0,1,1-.74.12l-.49-3a.38.38,0,0,1,.3-.44A.28.28,0,0,1,256.05,118.9Zm-2.5-.39a.36.36,0,0,1,.31.3l.56,3a.39.39,0,0,1-.3.44.38.38,0,0,1-.44-.3l-.55-3a.38.38,0,0,1,.29-.44A.28.28,0,0,1,253.55,118.51Zm1.11,5.91a.38.38,0,0,1,.31.3l.55,3a.38.38,0,0,1-.29.44.37.37,0,0,1-.44-.3l-.55-2.95a.38.38,0,0,1,.29-.45Zm2.37.41a.37.37,0,0,1,.31.31l.5,3a.39.39,0,0,1-.31.44.38.38,0,0,1-.43-.31l-.49-3a.37.37,0,0,1,.3-.43Zm-1.26,5.5a.38.38,0,0,1,.31.31l.55,3a.37.37,0,0,1-.29.44.37.37,0,0,1-.44-.29l-.55-3a.37.37,0,0,1,.29-.44Zm2.25.44a.36.36,0,0,1,.31.31l.5,3a.38.38,0,0,1-.31.43.36.36,0,0,1-.43-.31l-.49-3a.38.38,0,0,1,.3-.44A.24.24,0,0,1,258,130.77Zm-1.14,5.48a.37.37,0,0,1,.31.3l.55,2.95a.37.37,0,1,1-.73.15l-.56-3a.39.39,0,0,1,.3-.44Zm2.13.46a.37.37,0,0,1,.31.3l.49,3a.37.37,0,1,1-.73.13l-.5-3a.38.38,0,0,1,.31-.43A.24.24,0,0,1,259,136.71Zm-1,5.45a.37.37,0,0,1,.31.3l.55,3a.37.37,0,0,1-.3.44.38.38,0,0,1-.43-.3l-.56-3a.38.38,0,0,1,.3-.44Zm2,.48a.37.37,0,0,1,.31.31l.49,3a.37.37,0,0,1-.3.43.36.36,0,0,1-.43-.31l-.5-3a.38.38,0,0,1,.31-.44Zm-.9,5.43a.38.38,0,0,1,.31.3l.55,3a.37.37,0,1,1-.73.14l-.56-2.95a.39.39,0,0,1,.3-.45Zm1.89.51a.37.37,0,0,1,.31.3l.49,3a.38.38,0,1,1-.74.13l-.49-3a.37.37,0,0,1,.31-.43A.24.24,0,0,1,261,148.58Zm-.78,5.41a.36.36,0,0,1,.3.3l.56,3a.38.38,0,1,1-.74.15l-.55-3a.37.37,0,0,1,.3-.44A.28.28,0,0,1,260.21,154Zm1.76.52a.37.37,0,0,1,.31.31l.5,3a.38.38,0,0,1-.31.43.37.37,0,0,1-.43-.31l-.49-3a.38.38,0,0,1,.3-.44Zm-.65,5.39a.36.36,0,0,1,.3.3l.56,3a.38.38,0,0,1-.3.44.39.39,0,0,1-.44-.3l-.55-3a.37.37,0,0,1,.3-.44A.28.28,0,0,1,261.32,159.9Zm1.64.54a.38.38,0,0,1,.31.31l.5,3a.39.39,0,0,1-.31.44.38.38,0,0,1-.43-.31l-.49-3a.37.37,0,0,1,.3-.43Zm-.54,5.37a.37.37,0,0,1,.31.3l.56,3a.39.39,0,0,1-.3.44.38.38,0,0,1-.44-.3l-.55-3a.38.38,0,0,1,.3-.45Zm1.53.57a.37.37,0,0,1,.31.31l.49,3a.37.37,0,0,1-.3.43.36.36,0,0,1-.43-.31l-.5-3a.39.39,0,0,1,.31-.44Zm-.42,5.34a.37.37,0,0,1,.31.3l.56,3a.38.38,0,0,1-.3.44.38.38,0,0,1-.44-.29l-.55-3a.37.37,0,0,1,.29-.44Zm1.41.59a.4.4,0,0,1,.31.31l.49,3a.38.38,0,0,1-.3.44.37.37,0,0,1-.43-.31l-.5-3a.37.37,0,0,1,.31-.43Zm-.3,5.33a.37.37,0,0,1,.31.3l.55,2.95a.38.38,0,0,1-.29.45.38.38,0,0,1-.44-.3l-.55-3a.38.38,0,0,1,.29-.44Zm1.29.61a.37.37,0,0,1,.31.31l.49,3a.37.37,0,0,1-.31.43.37.37,0,0,1-.43-.31l-.49-3a.38.38,0,0,1,.31-.44Zm-.18,5.3a.37.37,0,0,1,.31.3l.55,3a.38.38,0,0,1-.29.44.38.38,0,0,1-.44-.3l-.56-3a.39.39,0,0,1,.3-.44A.29.29,0,0,1,265.75,183.55Zm1.17.64a.35.35,0,0,1,.3.3l.5,3a.39.39,0,0,1-.31.44.38.38,0,0,1-.43-.31l-.49-3a.37.37,0,0,1,.3-.43Zm-.06,5.27a.38.38,0,0,1,.31.3l.55,3a.37.37,0,0,1-.3.44.36.36,0,0,1-.43-.3l-.56-3a.39.39,0,0,1,.3-.45Zm1,.66a.36.36,0,0,1,.31.31l.5,3a.38.38,0,0,1-.31.43.36.36,0,0,1-.43-.31l-.49-3a.37.37,0,0,1,.3-.44Zm.07,5.25a.38.38,0,0,1,.31.31l.47,2.51-.29-1.7a.38.38,0,0,1,.31-.43.37.37,0,0,1,.43.3l.49,3a.37.37,0,1,1-.73.13l-.12-.74a.38.38,0,0,1-.31.35.36.36,0,0,1-.43-.29l-.56-3a.37.37,0,0,1,.3-.44Zm1.11,5.92a.37.37,0,0,1,.31.3l.11.59a.35.35,0,0,1,.26-.19.37.37,0,0,1,.43.31l.49,3a.37.37,0,0,1-.3.43.36.36,0,0,1-.43-.31l-.09-.53a.45.45,0,0,1-.22.13.38.38,0,0,1-.43-.3l-.56-3a.38.38,0,0,1,.3-.44Zm1.11,5.91a.37.37,0,0,1,.3.3l.1.49a.28.28,0,0,1,.16-.06.37.37,0,0,1,.43.3l.49,3a.38.38,0,0,1-.74.13l-.07-.47-.11,0a.38.38,0,0,1-.44-.3l-.55-2.95a.38.38,0,0,1,.3-.45Zm1.11,5.91a.37.37,0,0,1,.3.3l.09.46h0a.36.36,0,0,1,.43.31l.5,3a.37.37,0,0,1-.31.43.38.38,0,0,1-.43-.31l-.07-.45a.37.37,0,0,1-.43-.3l-.55-2.95a.38.38,0,0,1,.3-.45Zm1.1,5.92a.36.36,0,0,1,.31.3l.09.46a.36.36,0,0,1,.35.31l.5,3a.39.39,0,0,1-.31.44.38.38,0,0,1-.43-.31l-.08-.47a.39.39,0,0,1-.3-.3l-.55-3a.38.38,0,0,1,.29-.44Zm1.11,5.91a.37.37,0,0,1,.31.3l.1.51a.39.39,0,0,1,.22.29l.49,3a.37.37,0,1,1-.73.13l-.09-.55a.35.35,0,0,1-.17-.24l-.55-3a.38.38,0,0,1,.29-.44Zm1.11,5.91a.38.38,0,0,1,.31.3l.12.65a.38.38,0,0,1,.08.17l.35,2.15-.73.13-.55-2.95a.38.38,0,0,1,.29-.45Z" transform="translate(0 0)"/><polygon class="cls-44" points="254.68 84.43 250.48 87.91 251.6 84.97 254.68 84.43"/><path class="cls-44" d="M472.33,46a.38.38,0,0,1,.31.31.24.24,0,0,1,0,.12.35.35,0,0,1-.3.31l-3,.53A.38.38,0,0,1,469,47a.24.24,0,0,1,0-.12.37.37,0,0,1,.3-.32l3-.52Zm-5.91,1a.37.37,0,0,1,.3.31.53.53,0,0,1,0,.12.39.39,0,0,1-.31.32l-3,.52A.37.37,0,0,1,463,48a.24.24,0,0,1,0-.12.37.37,0,0,1,.31-.31l3-.52Zm-5.92,1.05h.06a.42.42,0,0,1,.14.09h0a.43.43,0,0,1,.11.21.4.4,0,0,1-.14.36h0a.29.29,0,0,1-.16.07l-3,.52h-.12a.37.37,0,0,1-.31-.3.38.38,0,0,1,.31-.44l3-.52A.24.24,0,0,1,460.5,48.13Zm-5.92,1h0a.38.38,0,0,1,.31.31.38.38,0,0,1-.3.44l-3,.52a.24.24,0,0,1-.12,0h0a.37.37,0,0,1-.3-.31.37.37,0,0,1,.3-.43l3-.53Zm-5.92,1h0a.35.35,0,0,1,.31.3.38.38,0,0,1-.3.44l-3,.52a.24.24,0,0,1-.12,0h0a.36.36,0,0,1-.31-.3.37.37,0,0,1,.3-.44l3-.52Zm-5.91,1h0a.4.4,0,0,1,.31.31.38.38,0,0,1-.31.43l-3,.53h-.12a.4.4,0,0,1-.31-.31.38.38,0,0,1,.31-.44l3-.52Zm-5.92,1h0a.4.4,0,0,1,.31.31.38.38,0,0,1-.31.44l-2.95.52h-.13a.37.37,0,0,1-.31-.31.38.38,0,0,1,.31-.43l3-.52Zm-5.92,1.05h0a.35.35,0,0,1,.31.31.37.37,0,0,1-.3.43l-3,.52h-.12a.36.36,0,0,1-.31-.3.38.38,0,0,1,.3-.44l3-.52Zm-5.91,1h0a.4.4,0,0,1,.31.31.39.39,0,0,1-.31.44l-3,.52a.37.37,0,0,1-.43-.31.35.35,0,0,1,.07-.28.33.33,0,0,1,.24-.15l2.95-.53Zm-5.92,1a.37.37,0,0,1,.31.3.38.38,0,0,1-.31.44l-2.95.52a.38.38,0,0,1-.44-.3.41.41,0,0,1,.07-.29A.36.36,0,0,1,416,56l3-.52Zm-5.92,1a.38.38,0,0,1,.31.31.37.37,0,0,1-.3.43l-3,.53a.37.37,0,0,1-.43-.31.39.39,0,0,1,.06-.28.4.4,0,0,1,.24-.16l3-.52Zm-5.91,1a.4.4,0,0,1,.31.31.39.39,0,0,1-.31.44l-3,.52a.37.37,0,0,1-.36-.59.33.33,0,0,1,.24-.15l2.95-.52Zm-5.92,1a.37.37,0,0,1,0,.74l-3,.53a.39.39,0,0,1-.43-.31.4.4,0,0,1,.07-.28.37.37,0,0,1,.24-.16l3-.52Zm-5.92,1h0a.38.38,0,0,1,.31.31.38.38,0,0,1-.3.44l-3,.52h-.12a.35.35,0,0,1-.31-.31.37.37,0,0,1,.3-.43l3-.53Zm-5.91,1h0a.35.35,0,0,1,.3.3.38.38,0,0,1-.3.44l-3,.52h-.12a.37.37,0,0,1-.31-.3.38.38,0,0,1,.3-.44l3-.52Zm-5.92,1h0a.4.4,0,0,1,.31.31.37.37,0,0,1-.31.43l-3,.53h-.12a.4.4,0,0,1-.31-.31.39.39,0,0,1,.31-.44l3-.52A.24.24,0,0,1,383.58,61.7Zm-5.92,1h0a.36.36,0,0,1,.31.3.38.38,0,0,1-.3.44l-3,.52h-.13a.35.35,0,0,1-.3-.3.37.37,0,0,1,.3-.44l3-.52Zm-5.92,1h0a.35.35,0,0,1,.3.31.37.37,0,0,1-.3.43l-3,.53h-.12a.38.38,0,0,1-.31-.31.38.38,0,0,1,.3-.44l3-.52Zm-5.91,1a.4.4,0,0,1,.31.31.38.38,0,0,1-.31.44l-3,.52a.24.24,0,0,1-.12,0h0a.38.38,0,0,1-.31-.31.47.47,0,0,1,0-.17h0a.4.4,0,0,1,.15-.19h0a.34.34,0,0,1,.15-.06l3-.53Zm-5.92,1a.37.37,0,0,1,.31.3.28.28,0,0,1,0,.13.37.37,0,0,1-.3.31l-3,.52a.36.36,0,0,1-.43-.3.53.53,0,0,1,0-.12.39.39,0,0,1,.31-.32l3-.52Zm-5.92,1a.37.37,0,0,1,.31.31.24.24,0,0,1,0,.12.37.37,0,0,1-.3.32l-3,.52a.37.37,0,0,1-.43-.31.24.24,0,0,1,0-.12.35.35,0,0,1,.3-.31l3-.53A.24.24,0,0,1,354,66.92Zm-5.91,1a.37.37,0,0,1,.31.3v.12a.39.39,0,0,1-.31.32l-3,.52a.37.37,0,0,1-.43-.3.28.28,0,0,1,0-.13.37.37,0,0,1,.31-.31L348,68A.28.28,0,0,1,348.08,68Zm-5.92,1a.37.37,0,0,1,.31.31.24.24,0,0,1,0,.12.37.37,0,0,1-.31.31l-3,.53a.4.4,0,0,1-.44-.31v-.12a.39.39,0,0,1,.31-.32l3-.52A.24.24,0,0,1,342.16,69Zm-5.92,1a.38.38,0,0,1,.31.31.24.24,0,0,1,0,.12.37.37,0,0,1-.3.32l-3,.52a.37.37,0,0,1-.43-.31.24.24,0,0,1,0-.12.37.37,0,0,1,.3-.31l3-.53Zm-5.91,1a.37.37,0,0,1,.31.3v.13a.4.4,0,0,1-.31.31l-3,.52a.37.37,0,0,1-.43-.3.24.24,0,0,1,0-.12.37.37,0,0,1,.31-.32l2.95-.52Zm-5.92,1a.4.4,0,0,1,.31.31.24.24,0,0,1,0,.12.38.38,0,0,1-.31.32l-3,.52a.38.38,0,0,1-.44-.31V73a.37.37,0,0,1,.31-.31l3-.53Zm-5.92,1a.36.36,0,0,1,.31.3.24.24,0,0,1,0,.12.37.37,0,0,1-.3.32l-3,.52a.37.37,0,0,1-.43-.3.28.28,0,0,1,0-.13.37.37,0,0,1,.3-.31l3-.52Zm-5.91,1a.35.35,0,0,1,.3.31.49.49,0,0,1,0,.12.38.38,0,0,1-.31.31l-3,.53a.37.37,0,0,1-.43-.31.24.24,0,0,1,0-.12.37.37,0,0,1,.3-.32l3-.52A.28.28,0,0,1,312.58,74.23Zm-5.92,1a.4.4,0,0,1,.31.31.48.48,0,0,1,0,.12.39.39,0,0,1-.31.32l-3,.52a.37.37,0,0,1-.43-.31v-.12a.4.4,0,0,1,.31-.31l3-.53Zm-5.92,1a.37.37,0,0,1,.31.3.28.28,0,0,1,0,.13.37.37,0,0,1-.3.31l-3,.52a.37.37,0,0,1-.43-.3.53.53,0,0,1,0-.12.39.39,0,0,1,.31-.32l3-.52Zm-5.92,1a.37.37,0,0,1,.31.31.24.24,0,0,1,0,.12.37.37,0,0,1-.3.32l-3,.52a.37.37,0,0,1-.43-.31.24.24,0,0,1,0-.12.35.35,0,0,1,.3-.31l3-.53Zm-5.91,1a.37.37,0,0,1,.31.3v.13a.4.4,0,0,1-.31.31l-3,.52a.42.42,0,0,1-.16,0,.38.38,0,0,1-.27-.29v-.1h0a.38.38,0,0,1,.31-.33l3-.52Zm-5.92,1a.37.37,0,0,1,.31.31.24.24,0,0,1,0,.12.35.35,0,0,1-.3.31l-3,.53a.37.37,0,0,1-.43-.31.28.28,0,0,1,0-.09h0a.37.37,0,0,1,.1-.21h0a.36.36,0,0,1,.2-.11l3-.52A.24.24,0,0,1,283,79.45Zm-5.92,1a.37.37,0,0,1,.31.31.24.24,0,0,1,0,.12.37.37,0,0,1-.3.32l-3,.52H274a.33.33,0,0,1-.33-.29h0v0A.37.37,0,0,1,274,81l3-.53Zm-5.91,1.05a.37.37,0,0,1,.31.31V82a.4.4,0,0,1-.31.31l-3,.52h-.05a.38.38,0,0,1-.24-.08h0a.39.39,0,0,1-.14-.23v-.06h0a.38.38,0,0,1,.29-.35h0l2.95-.52A.28.28,0,0,1,271.16,81.54Zm-5.92,1a.4.4,0,0,1,.31.31.24.24,0,0,1,0,.12.37.37,0,0,1-.31.32l-2.95.52a.41.41,0,0,1-.11,0h0a.36.36,0,0,1-.28-.18h0a.61.61,0,0,1,0-.12v-.1h0a.36.36,0,0,1,.31-.32h0l2.93-.52Zm-5.92,1a.35.35,0,0,1,.31.3.28.28,0,0,1,0,.13.37.37,0,0,1-.3.31l-3,.52-.13-.74,3-.52Z" transform="translate(0 0)"/><polygon class="cls-44" points="476.64 45.26 476.77 46 475.3 46.26 475.17 45.52 476.64 45.26"/><path class="cls-45" d="M413.5,359.22c-11.75,5.62-29.32-10.24-39.24-35.43s-8.41-50.17,3.34-55.79,29.33,10.24,39.25,35.43S425.26,353.6,413.5,359.22Z" transform="translate(0 0)"/><polygon class="cls-46" points="375.52 269.51 384.06 264.92 421.46 355.42 413.5 359.22 379.26 313.61 375.52 269.51"/><path class="cls-47" d="M420,356.14c-11.76,5.62-29.33-10.24-39.25-35.43s-8.41-50.17,3.35-55.79,29.33,10.24,39.24,35.43S431.72,350.52,420,356.14Z" transform="translate(0 0)"/><ellipse class="cls-48" cx="402.63" cy="310.81" rx="18.78" ry="43.85" transform="translate(-83.52 161.25) rotate(-20.57)"/><ellipse class="cls-2" cx="402.63" cy="310.81" rx="18.78" ry="43.85" transform="translate(-83.52 161.25) rotate(-20.57)"/><g class="cls-49"><path class="cls-50" d="M415.73,353.51c-9.38,4.49-24.18-10.13-33-32.65s-8.44-44.42.94-48.9,24.18,10.13,33,32.65S425.11,349,415.73,353.51Z" transform="translate(0 0)"/></g><path class="cls-51" d="M406.42,295.07c-2.62-4.52-5.81-8.35-9.9-6.62-3.58,1.5-3.71,6.61-2.25,10.66,1.57,4.36,3.93,6.2,8.38,7.12,6.6,1.13,11.71,3.29,14.47,11.09,3.09,8.57.7,15.95-4.31,18.17-3.24,1.53-6.66,1.15-8.83.94-.88-1.69-3.34-6.55-5.1-10.2l1.25-1.27c3.24,5.51,7.45,9.87,11.89,7.9,3.19-1.51,4.39-5.65,2.39-11.18-1.59-4.43-4.32-7.29-9.18-8.29-7.06-1.47-11.12-3.91-13.67-11-2.47-6.85-1.33-14,4.58-16.66,3.12-1.39,5.07-1.17,6.94-1.46,1.32,2.76,2.68,5.77,4.51,9.65Zm-12.58-14.82,1.6-.71,19.53,63-1.7.75Z" transform="translate(0 0)"/><path class="cls-52" d="M299.51,255.9A201.74,201.74,0,0,1,305,232.18a247.94,247.94,0,0,1,30.2-64.88c12.57-19.37,27.48-37,46-51,17.13-13,36.61-22.39,56.92-29.23a378,378,0,0,1,49.76-12.6l-4.17-24.3A12.46,12.46,0,0,0,469.24,40L248.54,79.33A12.63,12.63,0,0,0,238.4,93.89l26.7,155.38a12.46,12.46,0,0,0,14.39,10.2Z" transform="translate(0 0)"/><polygon class="cls-33" points="231.48 158.56 234.72 152.88 247.49 148.74 248.61 153.3 231.48 158.56"/><path class="cls-53" d="M235.27,155.59l57.14-10.18A11.7,11.7,0,0,1,305.93,155l2.13,12.38A11.88,11.88,0,0,1,298.53,181l-57.14,10.18a5,5,0,0,1-5.75-4.08l-4.43-25.73A5.05,5.05,0,0,1,235.27,155.59Z" transform="translate(0 0)"/><path class="cls-44" d="M296.43,148.91h0a5.25,5.25,0,0,1,2.53,1.21l.28.27a.38.38,0,0,1,0,.53.37.37,0,0,1-.53,0l-.24-.23a4.31,4.31,0,0,0-2.17-1,.38.38,0,0,1-.29-.45A.37.37,0,0,1,296.43,148.91Zm-3,0a.38.38,0,0,1,.31.33.39.39,0,0,1-.33.42c-.76.09-1.52.23-2.16.37l-.75.15a.37.37,0,0,1-.44-.29.38.38,0,0,1,.29-.45l.75-.15c.66-.14,1.44-.29,2.22-.38ZM287.58,150a.38.38,0,0,1,0,.75l-2.93.58a.37.37,0,0,1-.44-.29.38.38,0,0,1,.29-.45l2.93-.58Zm12.91,2.89a.39.39,0,0,1,.3.24c.11.32.21.64.31,1,.2.64.4,1.29.58,1.94a.38.38,0,0,1-.26.47.37.37,0,0,1-.46-.26q-.27-1-.57-1.92c-.09-.31-.19-.62-.31-.93a.39.39,0,0,1,.23-.49A.37.37,0,0,1,300.49,152.88Zm-18.77-1.72a.38.38,0,0,1,.31.3.36.36,0,0,1-.3.44l-2.93.58a.38.38,0,0,1-.44-.3.37.37,0,0,1,.3-.44l2.93-.57Zm-5.87,1.14a.37.37,0,0,1,.31.3.38.38,0,0,1-.3.44l-2.94.55a.36.36,0,0,1-.43-.3.37.37,0,0,1,.3-.44l2.93-.55A.28.28,0,0,1,275.85,152.3ZM270,153.39a.38.38,0,0,1,0,.75l-2.94.54a.38.38,0,0,1-.13-.75l2.94-.53Zm32.17,5.28a.36.36,0,0,1,.3.28c.24,1,.46,2,.65,3a.37.37,0,1,1-.73.15c-.19-1-.41-2-.64-2.93a.38.38,0,0,1,.27-.46Zm-38.05-4.21a.38.38,0,0,1,0,.74l-3,.52a.37.37,0,0,1-.43-.3.38.38,0,0,1,.3-.44l3-.52A.24.24,0,0,1,264.09,154.46Zm-5.89,1a.38.38,0,0,1,.31.31.37.37,0,0,1-.3.43l-2.95.51a.38.38,0,0,1-.12-.75l2.94-.5A.24.24,0,0,1,258.2,155.49Zm-5.89,1a.37.37,0,0,1,.31.31.38.38,0,0,1-.31.43l-2.95.49a.38.38,0,0,1-.43-.31.39.39,0,0,1,.31-.44l2.95-.48A.24.24,0,0,1,252.31,156.49Zm51,8.09a.37.37,0,0,1,.31.31,23.83,23.83,0,0,1,.27,3.05.37.37,0,0,1-.37.38.36.36,0,0,1-.38-.36,22.13,22.13,0,0,0-.26-3,.38.38,0,0,1,.31-.43A.24.24,0,0,1,303.31,164.58Zm-56.9-7.13a.37.37,0,0,1,.31.31.38.38,0,0,1-.31.43l-3,.47a.38.38,0,0,1-.11-.75l2.95-.46Zm-5.91.92a.37.37,0,0,1,.31.32.38.38,0,0,1-.31.43l-3,.45a.37.37,0,0,1-.42-.32.38.38,0,0,1,.31-.43l3-.45Zm62.82,12.21h0a.38.38,0,0,1,.29.44,10.57,10.57,0,0,1-1.05,2.94.37.37,0,1,1-.65-.37,9.53,9.53,0,0,0,1-2.72A.37.37,0,0,1,303.32,170.58Zm-2.91,5.13a.45.45,0,0,1,.24.14.38.38,0,0,1-.06.53,9.55,9.55,0,0,1-2.72,1.5.38.38,0,0,1-.48-.22.39.39,0,0,1,.23-.49,8.77,8.77,0,0,0,2.5-1.38A.39.39,0,0,1,300.41,175.71Zm-5.49,2.23a.4.4,0,0,1,.31.3.37.37,0,0,1-.3.44l-1.45.28-1.49.27a.38.38,0,0,1-.44-.3.38.38,0,0,1,.31-.44l1.49-.27,1.44-.27ZM289,179a.4.4,0,0,1,.31.31.38.38,0,0,1-.3.44l-2.95.53a.37.37,0,0,1-.43-.3.38.38,0,0,1,.3-.44l2.95-.53Zm-5.88,1.07a.4.4,0,0,1,.31.31.39.39,0,0,1-.31.44l-2.94.53a.37.37,0,0,1-.43-.3.38.38,0,0,1,.3-.44l2.94-.54Zm-5.88,1.07a.37.37,0,0,1,.3.31.38.38,0,0,1-.3.44l-2.94.53a.37.37,0,0,1-.43-.3.37.37,0,0,1,.3-.44l2.94-.54Zm-5.89,1.07a.38.38,0,0,1,0,.75l-2.94.53a.38.38,0,1,1-.13-.74l2.94-.54Zm-5.88,1.07a.36.36,0,0,1,.31.31.37.37,0,0,1-.3.43l-2.94.54a.38.38,0,1,1-.13-.74l2.94-.54A.24.24,0,0,1,265.51,183.3Zm-5.88,1.07a.37.37,0,0,1,.31.3.38.38,0,0,1-.31.44l-2.94.54a.37.37,0,0,1-.43-.31.39.39,0,0,1,.3-.44l2.94-.53Zm-5.88,1.07a.37.37,0,0,1,.31.3.38.38,0,0,1-.31.44l-2.94.54a.38.38,0,0,1-.13-.75l2.94-.53Zm-5.89,1.07a.36.36,0,0,1,.31.3.38.38,0,0,1-.3.44l-2.94.54a.38.38,0,0,1-.44-.31.39.39,0,0,1,.31-.44l2.94-.53ZM242,187.58a.36.36,0,0,1,.31.3.38.38,0,0,1-.3.44l-2.94.53a.37.37,0,0,1-.44-.3.38.38,0,0,1,.31-.44l2.94-.53A.24.24,0,0,1,242,187.58Z" transform="translate(0 0)"/><path class="cls-54" d="M283.31,167.09a6.68,6.68,0,0,1,5.43-7.69,6.58,6.58,0,0,1,7.67,5.36,6.69,6.69,0,0,1-5.43,7.69A6.59,6.59,0,0,1,283.31,167.09Z" transform="translate(0 0)"/><g class="cls-55"><ellipse class="cls-56" cx="360.41" cy="242.7" rx="43.71" ry="22.61" transform="translate(34.3 529.84) rotate(-75.32)"/><polygon class="cls-46" points="369.04 200.21 378.1 202.14 357.52 287.12 349.34 284.99 343.61 231.12 369.04 200.21"/><path class="cls-57" d="M356,286.72c-12.08-3.15-16.92-24.64-10.81-48S366,199,378.1,202.14s16.92,24.64,10.81,48S368.06,289.87,356,286.72Z" transform="translate(0 0)"/><ellipse class="cls-48" cx="367.36" cy="245" rx="39.08" ry="18.04" transform="translate(37.29 538.31) rotate(-75.33)"/><g class="cls-58"><path class="cls-59" d="M354.16,282.37c-9.64-2.51-13-21.47-7.57-42.35s17.71-35.77,27.35-33.26,13,21.48,7.57,42.36S363.8,284.89,354.16,282.37Z" transform="translate(0 0)"/></g><path class="cls-51" d="M378.83,236.38c.46-4.7.1-9.25-4-10.5-3.55-1.11-6.44,2.35-7.52,6-1.17,4-.36,6.65,2.55,9.94,4.45,4.73,7.2,9.28,5.06,16.33-2.29,7.77-8.14,11.45-13.2,10-3.31-.88-5.74-3.19-7.28-4.63.24-1.7,1-6.54,1.64-10.11l1.65-.14c-.51,5.76.34,11.29,4.82,12.59,3.27.86,6.44-1.29,7.92-6.3A10.94,10.94,0,0,0,368,248.34c-4.61-5.24-6.4-9.36-4.5-15.79,1.83-6.21,6.62-10.5,12.59-8.78,3.15.91,4.52,2.22,6.11,3.14-.49,2.7-1.08,5.59-1.79,9.38Zm-1.58-17.78,1.62.47-19.33,55.28-1.72-.5Z" transform="translate(0 0)"/><path class="cls-60" d="M419.3,287.64c-12,3.3-27-12.9-33.31-36.19s-1.75-44.84,10.29-48.14,27,12.91,33.32,36.19S431.35,284.35,419.3,287.64Z" transform="translate(0 0)"/><polygon class="cls-46" points="394.08 204.34 402.89 201.5 427.45 285.41 419.3 287.64 387.45 243.82 394.08 204.34"/><ellipse class="cls-61" cx="414.4" cy="243.67" rx="22.61" ry="43.71" transform="translate(-49.5 117.57) rotate(-15.25)"/><path class="cls-48" d="M425.25,281.7c-9.61,2.63-22-12.11-27.69-32.93s-2.5-39.84,7.11-42.47,22,12.11,27.69,32.93S434.86,279.07,425.25,281.7Z" transform="translate(0 0)"/><g class="cls-62"><path class="cls-63" d="M422.17,283c-9.61,2.64-22-12.11-27.69-32.93s-2.5-39.83,7.11-42.46,22,12.11,27.69,32.93S431.78,280.34,422.17,283Z" transform="translate(0 0)"/></g><path class="cls-51" d="M420.61,230.81c-1.95-4.3-4.54-8.07-8.7-7.12-3.63.82-4.41,5.26-3.52,9,1,4,3,5.94,7.17,7.34,6.22,1.88,10.87,4.45,12.54,11.63,1.89,7.88-1.35,14-6.46,15.24-3.31.89-6.56.1-8.62-.38-.63-1.59-2.39-6.16-3.62-9.58l1.36-.94c2.43,5.24,5.93,9.62,10.46,8.5,3.26-.88,4.94-4.32,3.72-9.41a11,11,0,0,0-7.8-8.47c-6.61-2.24-10.21-4.92-11.78-11.44-1.51-6.3.5-12.41,6.53-13.89,3.18-.78,5-.33,6.87-.32.92,2.57,1.85,5.38,3.13,9Zm-10.24-14.63,1.64-.4,10.82,57.56-1.74.42Z" transform="translate(0 0)"/></g><path class="cls-64" d="M357.3,388.07c-6.3,9.6-26.78,5.64-45.73-8.84s-29.21-34-22.9-43.59,26.78-5.64,45.73,8.84S363.61,378.47,357.3,388.07Z" transform="translate(0 0)"/><polygon class="cls-46" points="287.78 337.74 292.13 330.38 361.57 381.58 357.3 388.07 310.7 369.28 287.78 337.74"/><ellipse class="cls-65" cx="326.44" cy="356.59" rx="20.72" ry="43.22" transform="translate(-155.9 389.3) rotate(-51.41)"/><path class="cls-48" d="M357.72,380c-5,7.66-22.84,3.37-39.79-9.57s-26.6-29.65-21.57-37.31,22.85-3.37,39.79,9.57S362.76,372.3,357.72,380Z" transform="translate(0 0)"/><path class="cls-3" d="M357.72,380c-5,7.66-22.84,3.37-39.79-9.57s-26.6-29.65-21.57-37.31,22.85-3.37,39.79,9.57S362.76,372.3,357.72,380Z" transform="translate(0 0)"/><g class="cls-66"><path class="cls-67" d="M356.38,382.75c-5,7.66-22.85,3.38-39.79-9.57S290,343.54,295,335.88s22.84-3.38,39.79,9.57S361.41,375.09,356.38,382.75Z" transform="translate(0 0)"/></g><path class="cls-51" d="M322.73,342.93c-4-2.22-8.18-3.65-10.48-.48-2,2.75.21,6.67,3.16,9.06,3.17,2.57,5.79,2.88,9.56,1.55,5.49-2.16,10.33-2.86,16,1.77,6.22,5.05,7.79,11.7,5,15.66-1.74,2.63-4.5,3.91-6.22,4.73-1.44-.87-5.51-3.41-8.5-5.37l.36-1.52c5,2.68,10.12,4.05,12.57.54,1.72-2.59.73-6.26-3.29-9.52-3.22-2.62-6.58-3.53-10.7-2.07-6,2.11-10.17,2.12-15.32-2.06-5-4-7.4-10-4.14-14.65,1.72-2.47,3.29-3.19,4.57-4.26,2.25,1.47,4.64,3.12,7.8,5.21Zm-16.24-5.45.88-1.27,43.45,38.63-.94,1.35Z" transform="translate(0 0)"/><path class="cls-68" d="M518.23,358.78c8.12,10.19-3.37,30.89-25.68,46.22s-47,19.51-55.11,9.32,3.37-30.88,25.68-46.22S510.1,348.59,518.23,358.78Z" transform="translate(0 0)"/><polygon class="cls-46" points="439.39 416.01 432.99 408.73 512.73 351.89 518.23 358.78 481.51 402.43 439.39 416.01"/><ellipse class="cls-69" cx="473.38" cy="380.96" rx="49.05" ry="23.52" transform="translate(-131.42 322.35) rotate(-33.29)"/><path class="cls-48" d="M509.62,355.46c6.49,8.13-4.42,25.84-24.36,39.55s-41.37,18.24-47.86,10.11,4.42-25.84,24.37-39.55S503.14,347.33,509.62,355.46Z" transform="translate(0 0)"/><path class="cls-4" d="M509.62,355.46c6.49,8.13-4.42,25.84-24.36,39.55s-41.37,18.24-47.86,10.11,4.42-25.84,24.37-39.55S503.14,347.33,509.62,355.46Z" transform="translate(0 0)"/><g class="cls-70"><path class="cls-71" d="M512.16,357.9c6.49,8.13-4.42,25.84-24.36,39.55s-41.37,18.24-47.86,10.11,4.42-25.84,24.37-39.55S505.68,349.77,512.16,357.9Z" transform="translate(0 0)"/></g><path class="cls-51" d="M457.33,380.15c-3.82,3.57-6.83,7.54-4.22,11.14,2.26,3.14,7.27,2.12,10.89-.22,3.89-2.51,5.15-5.23,5-9.76-.38-6.69.56-12.16,7.55-16.61,7.65-4.93,15.38-4.27,18.67.11,2.22,2.81,2.63,6.23,2.9,8.39-1.44,1.23-5.62,4.73-8.78,7.26l-1.52-.92c4.64-4.41,7.94-9.49,5-13.37-2.19-2.77-6.49-3-11.43.19-4,2.56-6.13,5.86-6,10.82.16,7.2-1.31,11.71-7.63,15.8-6.12,3.94-13.38,4.45-17.27-.71-2.05-2.73-2.28-4.67-3-6.43,2.38-1.91,5-3.91,8.38-6.58Zm-11.61,15.6-1.06-1.41,57-33.23,1.12,1.49Z" transform="translate(0 0)"/><path class="cls-72" d="M383.73,507.85c-13-.18-21.74-22.19-19.44-49.17S379,410,392.05,410.17s21.74,22.2,19.44,49.17S396.76,508,383.73,507.85Z" transform="translate(0 0)"/><polygon class="cls-46" points="389.51 410.6 399.2 410.27 392.55 507.98 383.73 507.85 373.29 451.78 389.51 410.6"/><ellipse class="cls-73" cx="395.04" cy="459.11" rx="49.05" ry="23.52" transform="translate(-103.38 803.24) rotate(-83.91)"/><path class="cls-48" d="M391.75,503.31c-10.4-.15-17.16-19.82-15.11-43.93s12.15-43.55,22.55-43.4,17.17,19.81,15.12,43.93S402.15,503.45,391.75,503.31Z" transform="translate(0 0)"/><path class="cls-5" d="M391.75,503.31c-10.4-.15-17.16-19.82-15.11-43.93s12.15-43.55,22.55-43.4,17.17,19.81,15.12,43.93S402.15,503.45,391.75,503.31Z" transform="translate(0 0)"/><g class="cls-74"><path class="cls-75" d="M388.26,503.72c-10.4-.14-17.17-19.81-15.11-43.92s12.15-43.55,22.55-43.41,17.16,19.82,15.11,43.93S398.66,503.87,388.26,503.72Z" transform="translate(0 0)"/></g><path class="cls-51" d="M405.85,447.22c-.33-5.22-1.49-10.06-5.93-10.33-3.87-.24-6.25,4.28-6.74,8.56-.53,4.6.77,7.3,4.34,10.09,5.42,3.95,9,8.15,8.05,16.37-1,9-6.45,14.6-11.93,14.37-3.58-.07-6.48-1.93-8.32-3.08-.05-1.9-.1-7.36-.05-11.4l1.68-.59c.46,6.38,2.3,12.16,7.15,12.36,3.53.07,6.44-3.12,7.11-8.95.53-4.69-.64-8.46-4.55-11.51-5.67-4.45-8.23-8.44-7.37-15.92.83-7.24,5-13.17,11.5-12.9,3.41.14,5.06,1.2,6.86,1.77,0,3.06-.16,6.36-.23,10.65Zm-4.69-18.87,1.76.08-10.48,65.15-1.86-.08Z" transform="translate(0 0)"/><path class="cls-76" d="M561.56,116.22l1.14-12.85a.46.46,0,0,1,.91-.06l2.8,12.35a4.09,4.09,0,0,0,3.71,3.16l12.68.87a.46.46,0,0,1,.09.9L570.58,124a4.08,4.08,0,0,0-3,3.48l-1.55,13.8a.46.46,0,0,1-.91,0l-2.43-12.48a4.06,4.06,0,0,0-3.63-3.28L545,123.89a.27.27,0,0,1,0-.54l13.43-3.51A4.08,4.08,0,0,0,561.56,116.22Z" transform="translate(0 0)"/><path class="cls-77" d="M747.2,251.43l1.14-12.85a.46.46,0,0,1,.91-.06l2.81,12.34a4.07,4.07,0,0,0,3.7,3.17l12.68.86a.46.46,0,0,1,.09.91l-12.3,3.35a4.09,4.09,0,0,0-3,3.48l-1.55,13.8a.46.46,0,0,1-.91,0L748.35,264a4.08,4.08,0,0,0-3.63-3.29l-14-1.61a.27.27,0,0,1,0-.53L744.07,255A4.06,4.06,0,0,0,747.2,251.43Z" transform="translate(0 0)"/><path class="cls-78" d="M561.56,412.56l1.14-12.84a.46.46,0,0,1,.91-.07l2.8,12.35a4.08,4.08,0,0,0,3.71,3.16l12.68.87a.46.46,0,0,1,.09.91l-12.31,3.35a4.09,4.09,0,0,0-3,3.48l-1.55,13.8a.46.46,0,0,1-.91,0l-2.43-12.48a4.06,4.06,0,0,0-3.63-3.28L545,420.23a.27.27,0,0,1,0-.54l13.43-3.51A4.08,4.08,0,0,0,561.56,412.56Z" transform="translate(0 0)"/><path class="cls-79" d="M158.42,228.59l1.13-12.85a.46.46,0,0,1,.91-.06L163.27,228a4.07,4.07,0,0,0,3.7,3.17l12.68.86a.46.46,0,0,1,.09.91l-12.3,3.35a4.09,4.09,0,0,0-3,3.48l-1.55,13.8a.46.46,0,0,1-.91,0l-2.43-12.48a4.08,4.08,0,0,0-3.63-3.29l-14-1.61a.27.27,0,0,1,0-.53l13.43-3.52A4.09,4.09,0,0,0,158.42,228.59Z" transform="translate(0 0)"/><path class="cls-80" d="M151.49,57.71l1.14-12.85a.46.46,0,0,1,.91-.06l2.81,12.35a4.07,4.07,0,0,0,3.7,3.16l12.68.87a.46.46,0,0,1,.09.9l-12.3,3.36a4.07,4.07,0,0,0-3,3.48L156,82.72a.46.46,0,0,1-.91,0l-2.43-12.48A4.06,4.06,0,0,0,149,67l-14-1.61a.28.28,0,0,1,0-.54l13.43-3.51A4.08,4.08,0,0,0,151.49,57.71Z" transform="translate(0 0)"/><path class="cls-81" d="M265.05,11.78a7.11,7.11,0,1,1-7.11-7.11A7.11,7.11,0,0,1,265.05,11.78Z" transform="translate(0 0)"/><path class="cls-82" d="M653.14,75.91A7.11,7.11,0,1,1,646,68.8,7.11,7.11,0,0,1,653.14,75.91Z" transform="translate(0 0)"/><path class="cls-83" d="M717.38,310.45a4.27,4.27,0,1,1-4.27-4.27A4.28,4.28,0,0,1,717.38,310.45Z" transform="translate(0 0)"/><path class="cls-84" d="M75.87,199.77a4.27,4.27,0,1,1-4.27-4.27A4.27,4.27,0,0,1,75.87,199.77Z" transform="translate(0 0)"/><path class="cls-85" d="M231.14,416a7.11,7.11,0,1,1-7.11-7.11A7.11,7.11,0,0,1,231.14,416Z" transform="translate(0 0)"/></g></g></svg>